<svg width="38" height="38" viewBox="0 0 38 38" fill="none" xmlns="http://www.w3.org/2000/svg">
<g clip-path="url(#clip0_803_6484)">
<rect width="37.5" height="37.5" rx="4" fill="#E4E4E7"/>
<path d="M30.4271 48.3432C29.494 47.8049 28.3746 47.4398 27.1868 47.2472L40.3973 39.6202L22.6476 29.3726L-23.043 55.7522L-5.29322 65.9998L17.8944 52.6126C18.2284 53.2979 18.8599 53.9446 19.7923 54.483C22.7104 56.1677 27.4566 56.1594 30.3933 54.4636C33.3307 52.7679 33.3452 50.0279 30.4271 48.3432Z" fill="#D9D7D7"/>
<path d="M34.9219 40.7178V24.9136L36.4188 24.9164V40.7233L34.9219 40.7178Z" fill="#A29AB0"/>
<path d="M21.7562 32.6888C21.465 32.8572 20.9908 32.8565 20.6975 32.6867C20.4042 32.5176 20.4028 32.2436 20.6941 32.0752C20.9853 31.9068 21.4595 31.9082 21.7528 32.0773C22.0461 32.2471 22.0475 32.5211 21.7562 32.6888Z" fill="#A29AB0"/>
<path d="M20.4766 32.3789V16.5747L21.9735 16.5775V32.3844L20.4766 32.3789Z" fill="#A29AB0"/>
<path d="M9.15098 39.0194L-4.76144 47.0509L-17.0312 39.967L-3.11884 31.9355L9.15098 39.0194Z" fill="#5B87CF"/>
<path d="M9.71094 39.6622L38.6145 22.9746V26.5863L9.71094 43.2738V39.6622Z" fill="#5F8DD9"/>
<path d="M9.14062 39.3326L38.0435 22.645L38.6149 22.9749L9.71139 39.6625L9.14062 39.3326Z" fill="#5376BD"/>
<path d="M29.3517 30.0756C29.3269 30.0612 29.2931 30.0632 29.2551 30.0853C29.1799 30.1288 29.1191 30.2337 29.1191 30.32C29.1191 30.3634 29.1343 30.3931 29.1592 30.4076L29.5912 30.6588C29.5671 30.6443 29.5519 30.6147 29.5512 30.5712C29.5512 30.4849 29.6119 30.38 29.6871 30.3365C29.7251 30.3144 29.7589 30.3124 29.7838 30.3269L29.3517 30.0756Z" fill="#989AA6"/>
<path d="M29.6887 30.3357C29.7639 30.2922 29.8247 30.3267 29.8247 30.413C29.8247 30.4999 29.7646 30.6049 29.6894 30.6483C29.6142 30.6918 29.5527 30.6573 29.5527 30.5703C29.552 30.4841 29.6135 30.3792 29.6887 30.3357Z" fill="#BFC1D0"/>
<path d="M22.0861 34.27C22.0613 34.2555 22.0274 34.2576 21.9895 34.2796C21.9142 34.3231 21.8535 34.428 21.8535 34.5143C21.8535 34.5578 21.8687 34.5875 21.8935 34.602L22.3263 34.8532C22.3021 34.8387 22.2869 34.809 22.2863 34.7655C22.2863 34.6793 22.347 34.5744 22.4222 34.5309C22.4602 34.5088 22.494 34.5067 22.5188 34.5212L22.0861 34.27Z" fill="#989AA6"/>
<path d="M22.4211 34.5305C22.4964 34.487 22.5571 34.5215 22.5571 34.6085C22.5571 34.6954 22.497 34.8003 22.4218 34.8438C22.3466 34.8873 22.2852 34.8528 22.2852 34.7658C22.2845 34.6789 22.3459 34.574 22.4211 34.5305Z" fill="#BFC1D0"/>
<path d="M30.4194 30.0088C30.369 29.9791 30.3235 29.9764 30.2904 29.9957L21.4824 35.0836C21.5155 35.0643 21.5611 35.0677 21.6115 35.0967C21.7116 35.1547 21.7916 35.2948 21.7909 35.4094C21.7909 35.4667 21.7702 35.5067 21.7378 35.5253L30.5457 30.4374C30.5782 30.4188 30.5982 30.3788 30.5989 30.3215C30.5995 30.2062 30.5188 30.0668 30.4194 30.0088Z" fill="url(#paint0_linear_803_6484)"/>
<path d="M21.6119 35.0963C21.712 35.1543 21.7927 35.2937 21.792 35.4083C21.792 35.5235 21.7106 35.5691 21.6105 35.5118C21.5104 35.4545 21.429 35.3144 21.4297 35.1991C21.4304 35.0846 21.5118 35.0383 21.6119 35.0963Z" fill="#B0B3C1"/>
<path d="M40.3963 21.7411L-5.29492 48.1207V47.3332L40.3963 20.9536V21.7411Z" fill="#5B87CF"/>
<path d="M40.3973 20.9532L-5.29391 47.3328L-23.043 37.0852L22.6476 10.7056L40.3973 20.9532Z" fill="#82ACF5"/>
<path d="M16.728 21.9711L0.832046 31.1482L-3.95703 28.3841L11.9389 19.2056L16.728 21.9711Z" fill="#D4D4D4"/>
<path d="M10.7205 36.0754L32.6872 23.3929C33.0764 23.1679 33.0274 22.7718 32.5775 22.5116L26.1713 18.813C25.7213 18.5535 25.0346 18.5251 24.6453 18.7495L2.67867 31.432C2.28942 31.657 2.33842 32.0531 2.78841 32.3133L9.19386 36.012C9.64385 36.2722 10.3306 36.3004 10.7205 36.0754Z" fill="#494760"/>
<path d="M27.1311 23.4537L27.1698 23.4309C27.8109 23.0603 27.7302 22.4074 26.9896 21.9802L26.1249 21.4812C25.3843 21.0533 24.2531 21.0063 23.612 21.377L23.5733 21.3998C22.9321 21.7704 23.0129 22.4233 23.7534 22.8505L24.6182 23.3495C25.3588 23.7774 26.49 23.8243 27.1311 23.4537Z" fill="#E7E7E7"/>
<path d="M26.332 21.4609C26.3465 21.4713 26.361 21.4823 26.3755 21.4941C26.3728 21.4913 26.37 21.4892 26.3672 21.4865L26.332 21.4609Z" fill="#A0A1A5"/>
<path d="M26.5605 21.6587L26.6123 21.7208C26.5944 21.6987 26.5771 21.6773 26.5605 21.6587Z" fill="#929296"/>
<path d="M26.7969 21.9995L26.8001 22.0059L26.7993 22.0027L26.7969 21.9995Z" fill="#838487"/>
<path d="M26.8886 22.2231C26.8865 22.2169 26.8844 22.2107 26.883 22.2052L26.8465 22.1044C26.8396 22.0899 26.832 22.0733 26.8244 22.0561C26.8195 22.045 26.814 22.0347 26.8092 22.0236C26.8064 22.0174 26.8037 22.0112 26.8002 22.005C26.8009 22.0064 26.8009 22.0071 26.8009 22.0078C26.7961 21.996 26.7892 21.9857 26.7837 21.9746C26.7816 21.9712 26.7802 21.9677 26.7781 21.9629C26.7712 21.9491 26.7643 21.936 26.7574 21.9236L26.7319 21.8828C26.7284 21.8766 26.7243 21.8697 26.7195 21.8642L26.6981 21.8297C26.6939 21.8242 26.6905 21.8186 26.6863 21.8138C26.6712 21.7924 26.6553 21.7717 26.6401 21.7517C26.6035 21.7034 26.589 21.6882 26.5469 21.6434L26.5283 21.6254C26.5124 21.6095 26.4972 21.5944 26.4821 21.5806L26.4641 21.5633C26.4565 21.5571 26.4489 21.5509 26.4427 21.5454C26.4227 21.5281 26.4034 21.5122 26.3847 21.4984C26.3392 21.4618 26.3074 21.4404 26.2433 21.4011C26.2426 21.4004 26.2419 21.4004 26.2412 21.3997C26.235 21.3956 26.2274 21.3921 26.2205 21.3866L25.6442 21.0526L25.6387 21.0491L25.5731 21.0105L25.1887 20.7875C25.1776 20.782 25.1597 20.7724 25.1487 20.7662C25.1259 20.7544 25.1031 20.742 25.0838 20.7323C25.0348 20.7109 24.9692 20.6826 24.9195 20.6647L24.8995 20.6592C24.8726 20.6495 24.845 20.6419 24.8174 20.635L24.8091 20.6323C24.807 20.6323 24.8043 20.6316 24.8022 20.6309C24.7642 20.6212 24.7256 20.6136 24.6842 20.6074C24.6669 20.6047 24.6504 20.6019 24.6345 20.5998L24.5227 20.5888H24.4695C24.4502 20.5881 24.4316 20.5874 24.4116 20.5874C24.3964 20.5874 23.9926 20.6474 23.6317 20.8476C23.6006 20.8648 23.5709 20.8828 23.5412 20.9014C23.4232 20.9773 23.3135 21.0698 23.2293 21.1816C23.0643 21.4032 22.9698 21.6551 22.9629 21.9401L22.9636 22.0361C22.9643 22.0506 22.965 22.065 22.9656 22.0788C22.9663 22.0857 22.967 22.0933 22.967 22.0995C22.9677 22.1023 22.9677 22.1037 22.9677 22.1058C22.9884 22.3038 23.1313 22.4992 23.3956 22.6524L24.4267 23.2521V23.2514C24.4267 23.2514 24.4288 23.2521 24.4316 23.2542C24.4985 23.2929 24.5703 23.3267 24.6455 23.3564C24.6573 23.3605 24.6683 23.3639 24.6793 23.3688C24.7056 23.3784 24.7325 23.3888 24.7594 23.3971C24.798 23.4102 24.8381 23.4212 24.8781 23.4316C24.8788 23.4316 24.8802 23.4323 24.8809 23.4323C24.8974 23.4371 24.914 23.4419 24.9306 23.4461C24.9347 23.4475 24.9388 23.4482 24.9437 23.4495C24.9506 23.4509 24.9582 23.4523 24.9651 23.4544C25.0217 23.4682 25.0789 23.4778 25.1328 23.4833C25.1514 23.4854 25.1707 23.4882 25.1901 23.4902C25.2011 23.4916 25.2128 23.4923 25.2239 23.4937C25.2549 23.4972 25.2846 23.4992 25.3157 23.5013C25.3612 23.5054 25.4075 23.5068 25.453 23.5075C25.4779 23.5082 25.5034 23.5082 25.5276 23.5075H25.5372C25.5517 23.5075 25.5662 23.5068 25.58 23.5068C25.5959 23.5061 25.6118 23.5061 25.6283 23.5047C25.6332 23.5047 25.6387 23.5047 25.6435 23.504C25.6476 23.504 25.6511 23.5033 25.6559 23.5033C25.6587 23.5033 25.6614 23.5027 25.6642 23.5027C25.6704 23.5027 25.6773 23.502 25.6835 23.5013C25.6911 23.5013 25.6994 23.5006 25.7077 23.4999C25.7187 23.4992 25.7298 23.4985 25.7415 23.4972C25.7532 23.4958 25.7643 23.4951 25.776 23.4937C25.7781 23.4937 25.7802 23.493 25.7822 23.493C25.7877 23.4923 25.794 23.4916 25.7995 23.4909C25.814 23.4889 25.8292 23.4875 25.843 23.4854C25.8602 23.4833 25.8768 23.4813 25.8933 23.4785C25.8989 23.4778 25.9051 23.4764 25.9106 23.4758C25.914 23.4751 25.9175 23.4744 25.9223 23.4737H25.9244C25.9279 23.473 25.9306 23.4723 25.9348 23.4716C25.9403 23.4709 25.9472 23.4695 25.9527 23.4688C25.9561 23.4682 25.9596 23.4675 25.9631 23.4668C25.99 23.462 26.0162 23.4557 26.0424 23.4502C26.0859 23.4405 26.1287 23.4295 26.1708 23.4171C26.2122 23.4047 26.2529 23.3915 26.2936 23.3764C26.3737 23.3467 26.4496 23.3129 26.5207 23.2728C26.5207 23.2728 26.6229 23.2059 26.7319 23.1003C26.7961 23.0375 26.863 22.9602 26.912 22.8753C26.9396 22.8277 26.9534 22.7725 26.9562 22.7173C26.9569 22.7021 26.9576 22.6889 26.9583 22.6855V22.6841C26.9597 22.5288 26.9369 22.3729 26.8886 22.2231ZM25.0893 20.7434C25.09 20.7441 25.0907 20.7441 25.0914 20.7441C25.0927 20.7448 25.0941 20.7454 25.0962 20.7461C25.0879 20.7434 25.0789 20.7406 25.0714 20.7385C25.0769 20.7399 25.0831 20.742 25.0893 20.7434Z" fill="url(#paint1_linear_803_6484)"/>
<path d="M24.9541 21.3244L24.9368 21.354C24.9368 21.354 24.9251 21.3478 24.9065 21.3368C24.7898 21.2685 24.3654 21.0262 24.2674 20.98C23.8194 20.7695 23.5634 20.8992 23.5517 20.9033L23.4902 20.933L23.5399 20.8999C23.5696 20.8813 23.5993 20.8633 23.6303 20.8461C23.7504 20.8192 23.9754 20.8046 24.2819 20.9482C24.3875 20.9979 24.8416 21.2581 24.9368 21.3147C24.9458 21.3202 24.952 21.323 24.9541 21.3244Z" fill="#CECECE"/>
<path d="M25.6442 21.053C25.618 21.0391 25.4454 20.9819 24.9181 21.3725C24.2866 21.8398 24.1099 22.1828 23.9747 22.7294L23.9692 22.7508L23.8242 22.6714C23.3963 22.4374 23.0781 22.2642 22.9636 22.0358L22.9629 21.9398C23.0333 22.2007 23.3694 22.3836 23.8408 22.6417L23.9471 22.6997C24.0816 22.1683 24.2701 21.8101 24.8974 21.3456C24.9009 21.3428 24.9043 21.3401 24.9085 21.338C24.9188 21.3304 24.9285 21.3228 24.9388 21.3166C25.297 21.0571 25.482 21.0081 25.5731 21.0108L25.6394 21.0495L25.6442 21.053Z" fill="#CECECE"/>
<path d="M22.6195 27.1725L18.6952 24.9046C18.5648 24.8293 18.3543 24.8293 18.2245 24.9046L8.09493 30.7834C7.96518 30.8587 7.96587 30.9808 8.09631 31.056L12.0206 33.3239C12.151 33.3992 12.3615 33.3992 12.4913 33.3239L22.6209 27.4451C22.7507 27.3705 22.75 27.2484 22.6195 27.1725Z" fill="#E7E7E7"/>
<path d="M21.993 27.2091L18.1722 25.0012C18.0418 24.926 17.8313 24.926 17.7015 25.0012L7.99775 30.633L7.47461 30.7607V31.0154C7.47461 31.0651 7.50705 31.1148 7.57261 31.1527L11.4969 33.4206C11.6273 33.4958 11.8379 33.4958 11.9676 33.4206L22.0986 27.5418C22.1607 27.5059 22.1924 27.4589 22.1945 27.4113H22.1952V27.1594L21.993 27.2091Z" fill="#C5C9D8"/>
<path d="M22.0961 27.0216L18.1718 24.7537C18.0413 24.6785 17.8308 24.6785 17.7011 24.7537L7.57149 30.6325C7.44174 30.7078 7.44243 30.8299 7.57287 30.9052L11.4972 33.1731C11.6276 33.2483 11.8381 33.2483 11.9679 33.1731L22.0975 27.2942C22.2272 27.2197 22.2265 27.0975 22.0961 27.0216Z" fill="#DADAE8"/>
<path d="M9.47414 30.8927V30.8396H9.43066L8.98481 30.5822C8.93926 30.5559 8.86541 30.5559 8.81986 30.5822L8.37263 30.8417H8.33398V30.8921V30.8955C8.33536 30.9114 8.34709 30.9279 8.36849 30.9404L8.82331 31.2026C8.86886 31.2288 8.94271 31.2288 8.98826 31.2026L9.44032 30.9397C9.4631 30.9273 9.47414 30.91 9.47414 30.8927Z" fill="#E7E7F0"/>
<path d="M12.3445 32.55V32.4968H12.3011L11.8552 32.2394C11.8097 32.2132 11.7358 32.2132 11.691 32.2394L11.2437 32.4989H11.2051V32.5493V32.5527C11.2065 32.5686 11.2182 32.5852 11.2396 32.5969L11.6944 32.8592C11.74 32.8854 11.8145 32.8854 11.8594 32.8592L12.3114 32.5962C12.3335 32.5845 12.3452 32.5672 12.3445 32.55Z" fill="#E7E7F0"/>
<path d="M13.0516 32.1379V32.0847H13.0081L12.5622 31.8273C12.5167 31.8011 12.4429 31.8011 12.398 31.8273L11.9508 32.0868H11.9121V32.1372V32.1406C11.9135 32.1565 11.9252 32.1731 11.9466 32.1848L12.4014 32.4471C12.447 32.4733 12.5208 32.4733 12.5664 32.4471L13.0184 32.1841C13.0412 32.1731 13.0523 32.1551 13.0516 32.1379Z" fill="#E7E7F0"/>
<path d="M13.7606 31.7267V31.6736H13.7171L13.2712 31.4162C13.2257 31.3899 13.1518 31.3899 13.107 31.4162L12.6597 31.6756H12.6211V31.726V31.7295C12.6225 31.7454 12.6342 31.7619 12.6556 31.7736L13.1104 32.0359C13.156 32.0621 13.2305 32.0621 13.2754 32.0359L13.7274 31.773C13.7495 31.7612 13.7606 31.744 13.7606 31.7267Z" fill="#E7E7F0"/>
<path d="M14.4695 31.3151V31.262H14.4261L13.9802 31.0045C13.9347 30.9783 13.8608 30.9783 13.816 31.0045L13.3687 31.264H13.3301V31.3144V31.3179C13.3315 31.3338 13.3432 31.3503 13.3646 31.3627L13.8194 31.625C13.865 31.6512 13.9395 31.6512 13.9844 31.625L14.4364 31.362C14.4585 31.3496 14.4695 31.3324 14.4695 31.3151Z" fill="#E7E7F0"/>
<path d="M10.1824 30.4806V30.4275H10.139L9.6931 30.1701C9.64755 30.1438 9.5737 30.1438 9.52884 30.1701L9.08162 30.4296H9.04297V30.4799V30.4834C9.04435 30.4993 9.05608 30.5158 9.07747 30.5276L9.5323 30.7898C9.57785 30.8161 9.65239 30.8161 9.69725 30.7898L10.1493 30.5269C10.1714 30.5158 10.1824 30.4986 10.1824 30.4806Z" fill="#E7E7F0"/>
<path d="M11.2957 30.6608V30.6077H11.2522L10.8064 30.3502C10.7608 30.324 10.687 30.324 10.6421 30.3502L10.1949 30.6097H10.1562V30.6601V30.6636C10.1576 30.6795 10.1694 30.6953 10.1908 30.7077L10.6456 30.97C10.6911 30.9962 10.765 30.9962 10.8105 30.97L11.2626 30.7071C11.2847 30.6953 11.2957 30.6781 11.2957 30.6608Z" fill="#E7E7F0"/>
<path d="M12.0047 30.2492V30.1961H11.9612L11.5154 29.9386C11.4698 29.9124 11.396 29.9124 11.3511 29.9386L10.9039 30.1981H10.8652V30.2485V30.252C10.8666 30.2678 10.8783 30.2844 10.8997 30.2961L11.3546 30.5584C11.4001 30.5846 11.4747 30.5846 11.5195 30.5584L11.9716 30.2954C11.9937 30.2837 12.0047 30.2665 12.0047 30.2492Z" fill="#E7E7F0"/>
<path d="M12.3719 30.8713V30.8181H12.3284L11.8826 30.5607C11.837 30.5345 11.7632 30.5345 11.7183 30.5607L11.2711 30.8202H11.2324V30.8706V30.874C11.2338 30.8899 11.2455 30.9065 11.2669 30.9182L11.7218 31.1805C11.7673 31.2067 11.8411 31.2067 11.8867 31.1805L12.3388 30.9175C12.3608 30.9058 12.3719 30.8885 12.3719 30.8713Z" fill="#E7E7F0"/>
<path d="M13.0933 31.2883V31.2351H13.0498L12.604 30.9777C12.5584 30.9515 12.4846 30.9515 12.439 30.9777L11.9918 31.2372H11.9531V31.2876V31.291C11.9545 31.3069 11.9662 31.3235 11.9876 31.3352L12.4425 31.5975C12.488 31.6237 12.5619 31.6237 12.6074 31.5975L13.0595 31.3345C13.0822 31.3228 13.0933 31.3055 13.0933 31.2883Z" fill="#E7E7F0"/>
<path d="M13.8016 30.8771V30.824H13.7581L13.3122 30.5665C13.2667 30.5403 13.1929 30.5403 13.148 30.5665L12.7008 30.8261H12.6621V30.8764V30.8799C12.6635 30.8958 12.6745 30.9123 12.6959 30.9241L13.1507 31.1863C13.1963 31.2125 13.2708 31.2125 13.3157 31.1863L13.7678 30.9234C13.7905 30.9116 13.8016 30.8944 13.8016 30.8771Z" fill="#E7E7F0"/>
<path d="M14.5106 30.465V30.4119H14.4671L14.0212 30.1544C13.9757 30.1282 13.9018 30.1282 13.857 30.1544L13.4097 30.4139H13.3711V30.4643V30.4678C13.3725 30.4836 13.3842 30.5002 13.4056 30.5119L13.8604 30.7742C13.906 30.8004 13.9798 30.8004 14.0254 30.7742L14.4774 30.5113C14.4995 30.5002 14.5106 30.4829 14.5106 30.465Z" fill="#E7E7F0"/>
<path d="M15.2195 30.0534V30.0002H15.1761L14.7302 29.7428C14.6847 29.7166 14.6108 29.7166 14.566 29.7428L14.1187 30.0023H14.0801V30.0527V30.0562C14.0815 30.072 14.0932 30.0886 14.1146 30.101L14.5694 30.3633C14.615 30.3895 14.6888 30.3895 14.7344 30.3633L15.1864 30.1003C15.2085 30.0879 15.2195 30.0707 15.2195 30.0534Z" fill="#E7E7F0"/>
<path d="M15.9273 29.6428V29.5896H15.8838L15.4379 29.3322C15.3924 29.3059 15.3185 29.3059 15.273 29.3322L14.8258 29.5917H14.7871V29.6421V29.6455C14.7885 29.6614 14.8002 29.6773 14.8216 29.6897L15.2764 29.9519C15.322 29.9782 15.3958 29.9782 15.4414 29.9519L15.8934 29.689C15.9162 29.6773 15.9273 29.66 15.9273 29.6428Z" fill="#E7E7F0"/>
<path d="M16.6356 29.2306V29.1775H16.5921L16.1462 28.9201C16.1007 28.8938 16.0268 28.8938 15.982 28.9201L15.5347 29.1796H15.4961V29.2299V29.2334C15.4975 29.2493 15.5092 29.2658 15.5306 29.2776L15.9854 29.5398C16.031 29.5661 16.1055 29.5661 16.1504 29.5398L16.6024 29.2769C16.6245 29.2652 16.6356 29.2479 16.6356 29.2306Z" fill="#E7E7F0"/>
<path d="M17.3426 28.819V28.7659H17.2991L16.8533 28.5084C16.8077 28.4822 16.7339 28.4822 16.689 28.5084L16.2418 28.7679H16.2031V28.8183V28.8218C16.2045 28.8377 16.2162 28.8542 16.2376 28.866L16.6925 29.1282C16.738 29.1544 16.8125 29.1544 16.8574 29.1282L17.3095 28.8653C17.3315 28.8535 17.3426 28.8363 17.3426 28.819Z" fill="#E7E7F0"/>
<path d="M18.0516 28.4079V28.3548H18.0081L17.5622 28.0973C17.5167 28.0711 17.4429 28.0711 17.398 28.0973L16.9508 28.3568H16.9121V28.4072V28.4106H16.9128C16.9142 28.4265 16.9252 28.4431 16.9466 28.4555L17.4014 28.7178C17.447 28.744 17.5208 28.744 17.5664 28.7178L18.0185 28.4548C18.0405 28.4424 18.0516 28.4251 18.0516 28.4079Z" fill="#E7E7F0"/>
<path d="M18.7586 27.9958V27.9426H18.7151L18.2693 27.6852C18.2237 27.659 18.1499 27.659 18.105 27.6852L17.6578 27.9447H17.6191V27.9951V27.9985C17.6205 28.0144 17.6323 28.031 17.6537 28.0434L18.1085 28.3056C18.154 28.3319 18.2279 28.3319 18.2734 28.3056L18.7255 28.0427C18.7476 28.0303 18.7586 28.013 18.7586 27.9958Z" fill="#E7E7F0"/>
<path d="M19.5164 28.3805V28.3274H19.4729L19.0271 28.07C18.9815 28.0437 18.9077 28.0437 18.8628 28.07L18.4156 28.3295H18.377V28.3799V28.3833H18.3776C18.379 28.3992 18.3901 28.4151 18.4115 28.4275L18.8663 28.6897C18.9118 28.716 18.9857 28.716 19.0312 28.6897L19.4833 28.4268C19.5054 28.4157 19.5164 28.3985 19.5164 28.3805Z" fill="#E7E7F0"/>
<path d="M20.2254 27.9694V27.9163H20.1819L19.7361 27.6588C19.6905 27.6326 19.6167 27.6326 19.5718 27.6588L19.1246 27.9183H19.0859V27.9687V27.9722C19.0873 27.988 19.0991 28.0039 19.1204 28.0163L19.5753 28.2786C19.6208 28.3048 19.6954 28.3048 19.7402 28.2786L20.1923 28.0156C20.2144 28.0039 20.2261 27.9866 20.2254 27.9694Z" fill="#E7E7F0"/>
<path d="M21.661 27.1364V27.0832H21.6175L21.1716 26.8258C21.1261 26.7996 21.0522 26.7996 21.0074 26.8258L20.5601 27.0853H20.5215V27.1357V27.1391C20.5229 27.155 20.5346 27.1716 20.556 27.1833L21.0108 27.4456C21.0564 27.4718 21.1302 27.4718 21.1758 27.4456L21.6278 27.1826C21.6499 27.1709 21.661 27.1536 21.661 27.1364Z" fill="#E7E7F0"/>
<path d="M20.9029 26.6716L20.4571 26.4142C20.4115 26.388 20.3377 26.388 20.2928 26.4142L20.2293 26.4508L19.8456 26.6737H19.8069V26.6965L19.7828 26.711H19.7441V26.7613V26.7648C19.7455 26.7807 19.7573 26.7972 19.7787 26.8097L20.2335 27.0719C20.279 27.0982 20.3529 27.0982 20.3984 27.0719L20.914 26.7724C20.9368 26.7593 20.9478 26.742 20.9478 26.7248V26.6716H20.9029Z" fill="#E7E7F0"/>
<path d="M19.4676 27.5842V27.531H19.4241L18.9783 27.2736C18.9327 27.2473 18.8589 27.2473 18.814 27.2736L18.3668 27.5331H18.3281V27.5835V27.5869C18.3295 27.6028 18.3412 27.6194 18.3626 27.6318L18.8175 27.894C18.863 27.9203 18.9369 27.9203 18.9824 27.894L19.4345 27.6311C19.4566 27.6194 19.4676 27.6021 19.4676 27.5842Z" fill="#E7E7F0"/>
<path d="M20.1746 27.173V27.1199H20.1311L19.6853 26.8624C19.6397 26.8362 19.5659 26.8362 19.521 26.8624L19.0738 27.122H19.0352V27.1723V27.1758C19.0365 27.1917 19.0483 27.2082 19.0697 27.22L19.5245 27.4822C19.57 27.5084 19.6446 27.5084 19.6894 27.4822L20.1415 27.2193C20.1636 27.2075 20.1746 27.1903 20.1746 27.173Z" fill="#E7E7F0"/>
<path d="M13.0789 30.4596V30.4065H13.0354L12.5896 30.1491C12.544 30.1228 12.4702 30.1228 12.4253 30.1491L11.9781 30.4086H11.9395V30.4589V30.4624C11.9408 30.4783 11.9526 30.4941 11.974 30.5066L12.4288 30.7688C12.4743 30.795 12.5489 30.795 12.5937 30.7688L13.0458 30.5059C13.0679 30.4948 13.0789 30.4776 13.0789 30.4596Z" fill="#E7E7F0"/>
<path d="M13.7879 30.0485V29.9954H13.7444L13.2986 29.7379C13.253 29.7117 13.1792 29.7117 13.1343 29.7379L12.6871 29.9974H12.6484V30.0478V30.0513C12.6498 30.0671 12.6615 30.0837 12.6829 30.0954L13.1378 30.3577C13.1833 30.3839 13.2572 30.3839 13.3027 30.3577L13.7548 30.0947C13.7769 30.083 13.7879 30.0657 13.7879 30.0485Z" fill="#E7E7F0"/>
<path d="M14.4969 29.6364V29.5833H14.4534L14.0076 29.3258C13.962 29.2996 13.8882 29.2996 13.8433 29.3258L13.3961 29.5853H13.3574V29.6357V29.6392C13.3588 29.655 13.3705 29.6709 13.3919 29.6833L13.8468 29.9456C13.8923 29.9718 13.9668 29.9718 14.0117 29.9456L14.4638 29.6826C14.4858 29.6709 14.4969 29.6537 14.4969 29.6364Z" fill="#E7E7F0"/>
<path d="M15.2039 29.2258V29.1726H15.1604L14.7146 28.9152C14.669 28.889 14.5952 28.889 14.5503 28.9152L14.1031 29.1747H14.0645V29.2251V29.2285H14.0651C14.0665 29.2444 14.0776 29.261 14.099 29.2734L14.5538 29.5357C14.5993 29.5619 14.6739 29.5619 14.7187 29.5357L15.1708 29.2727C15.1929 29.2603 15.2039 29.243 15.2039 29.2258Z" fill="#E7E7F0"/>
<path d="M15.9129 28.8136V28.7605H15.8694L15.4236 28.5031C15.378 28.4768 15.3042 28.4768 15.2593 28.5031L14.8121 28.7626H14.7734V28.813V28.8164C14.7748 28.8323 14.7866 28.8488 14.8079 28.8606L15.2628 29.1228C15.3083 29.1491 15.3822 29.1491 15.4277 29.1228L15.8798 28.8599C15.9019 28.8482 15.9136 28.8309 15.9129 28.8136Z" fill="#E7E7F0"/>
<path d="M16.6199 28.402V28.3489H16.5765L16.1306 28.0914C16.0851 28.0652 16.0112 28.0652 15.9663 28.0914L15.5191 28.351H15.4805V28.4013V28.4048C15.4818 28.4207 15.4936 28.4372 15.515 28.449L15.9698 28.7112C16.0153 28.7375 16.0892 28.7375 16.1347 28.7112L16.5868 28.4483C16.6089 28.4365 16.6206 28.4193 16.6199 28.402Z" fill="#E7E7F0"/>
<path d="M17.3277 27.9909V27.9378H17.2842L16.8383 27.6803C16.7928 27.6541 16.7189 27.6541 16.6734 27.6803L16.2261 27.9398H16.1875V27.9902V27.9937C16.1889 28.0095 16.2006 28.0261 16.222 28.0378L16.6768 28.3001C16.7224 28.3263 16.7962 28.3263 16.8418 28.3001L17.2938 28.0371C17.3166 28.0254 17.3283 28.0082 17.3277 27.9909Z" fill="#E7E7F0"/>
<path d="M18.036 27.5788V27.5256H17.9925L17.5466 27.2682C17.5011 27.242 17.4272 27.242 17.3824 27.2682L16.9351 27.5277H16.8965V27.5781V27.5815C16.8979 27.5974 16.9096 27.614 16.931 27.6257L17.3858 27.888C17.4314 27.9142 17.5059 27.9142 17.5508 27.888L18.0028 27.625C18.0249 27.614 18.0366 27.5967 18.036 27.5788Z" fill="#E7E7F0"/>
<path d="M18.7449 27.1677V27.1145H18.7015L18.2556 26.8571C18.2101 26.8308 18.1362 26.8308 18.0913 26.8571L17.6441 27.1166H17.6055V27.167V27.1704C17.6068 27.1863 17.6186 27.2029 17.64 27.2146L18.0948 27.4769C18.1403 27.5031 18.2142 27.5031 18.2597 27.4769L18.7118 27.2139C18.7346 27.2022 18.7456 27.1849 18.7449 27.1677Z" fill="#E7E7F0"/>
<path d="M12.7117 29.8366V29.7834H12.6683L12.2224 29.526C12.1769 29.4998 12.103 29.4998 12.0581 29.526L11.6109 29.7855H11.5723V29.8359V29.8393H11.573C11.5743 29.8552 11.5854 29.8718 11.6068 29.8835L12.0616 30.1458C12.1071 30.172 12.181 30.172 12.2265 30.1458L12.6786 29.8828C12.7007 29.8711 12.7117 29.8538 12.7117 29.8366Z" fill="#E7E7F0"/>
<path d="M13.4207 29.426V29.3728H13.3772L12.9314 29.1154C12.8858 29.0891 12.812 29.0891 12.7671 29.1154L12.3199 29.3749H12.2812V29.4253V29.4287C12.2826 29.4446 12.2944 29.4612 12.3158 29.4729L12.7706 29.7352C12.8161 29.7614 12.89 29.7614 12.9355 29.7352L13.3876 29.4722C13.4097 29.4605 13.4207 29.4432 13.4207 29.426Z" fill="#E7E7F0"/>
<path d="M14.1277 29.0143V28.9612H14.0843L13.6384 28.7038C13.5929 28.6775 13.519 28.6775 13.4742 28.7038L13.0269 28.9633H12.9883V29.0136V29.0171C12.9897 29.033 13.0014 29.0495 13.0228 29.0613L13.4776 29.3235C13.5232 29.3498 13.597 29.3498 13.6426 29.3235L14.0946 29.0606C14.1167 29.0488 14.1277 29.0316 14.1277 29.0143Z" fill="#E7E7F0"/>
<path d="M14.8348 28.6022V28.5491H14.7913L14.3455 28.2916C14.2999 28.2654 14.2261 28.2654 14.1812 28.2916L13.734 28.5512H13.6953V28.6015V28.605C13.6967 28.6209 13.7084 28.6374 13.7298 28.6492L14.1846 28.9114C14.2302 28.9376 14.3047 28.9376 14.3496 28.9114L14.8017 28.6485C14.8237 28.6374 14.8348 28.6201 14.8348 28.6022Z" fill="#E7E7F0"/>
<path d="M15.5438 28.1911V28.138H15.5003L15.0544 27.8805C15.0089 27.8543 14.935 27.8543 14.8902 27.8805L14.4429 28.14H14.4043V28.1904V28.1939C14.4057 28.2097 14.4174 28.2263 14.4388 28.2387L14.8936 28.501C14.9392 28.5272 15.0137 28.5272 15.0586 28.501L15.5106 28.2387C15.5327 28.2256 15.5438 28.2083 15.5438 28.1911Z" fill="#E7E7F0"/>
<path d="M16.2527 27.7795V27.7263H16.2093L15.7634 27.4689C15.7179 27.4427 15.644 27.4427 15.5992 27.4689L15.1519 27.7284H15.1133V27.7788V27.7822C15.1147 27.7981 15.1264 27.8147 15.1478 27.8264L15.6026 28.0887C15.6482 28.1149 15.722 28.1149 15.7676 28.0887L16.2196 27.8257C16.2417 27.814 16.2527 27.7967 16.2527 27.7795Z" fill="#E7E7F0"/>
<path d="M16.9598 27.3683V27.3152H16.9163L16.4704 27.0578C16.4249 27.0315 16.351 27.0315 16.3062 27.0578L15.859 27.3172H15.8203V27.3676V27.3711C15.8217 27.387 15.8334 27.4035 15.8548 27.4159L16.3096 27.6782C16.3552 27.7044 16.429 27.7044 16.4746 27.6782L16.9267 27.4152C16.9487 27.4028 16.9598 27.3856 16.9598 27.3683Z" fill="#E7E7F0"/>
<path d="M17.6688 26.9562V26.9031H17.6253L17.1794 26.6456C17.1339 26.6194 17.06 26.6194 17.0152 26.6456L16.5679 26.9052H16.5293V26.9555V26.959C16.5307 26.9749 16.5424 26.9914 16.5638 27.0032L17.0186 27.2654C17.0642 27.2917 17.138 27.2917 17.1836 27.2654L17.6356 27.0025C17.6577 26.9907 17.6695 26.9735 17.6688 26.9562Z" fill="#E7E7F0"/>
<path d="M18.3758 26.5446V26.4915H18.3323L17.8865 26.234C17.8409 26.2078 17.7671 26.2078 17.7222 26.234L17.275 26.4935H17.2363V26.5439V26.5474C17.2377 26.5632 17.2494 26.5798 17.2708 26.5922L17.7257 26.8545C17.7712 26.8807 17.8458 26.8807 17.8906 26.8545L18.3427 26.5915C18.3648 26.5791 18.3765 26.5619 18.3758 26.5446Z" fill="#E7E7F0"/>
<path d="M10.8895 30.0695V30.0164H10.846L10.4001 29.7589C10.3546 29.7327 10.2807 29.7327 10.2359 29.7589L9.78865 30.0184H9.75V30.0688V30.0722H9.7507C9.75208 30.0881 9.76312 30.104 9.78451 30.1164L10.2393 30.3787C10.2849 30.4049 10.3594 30.4049 10.4043 30.3787L10.8563 30.1157C10.8784 30.1047 10.8895 30.0867 10.8895 30.0695Z" fill="#E7E7F0"/>
<path d="M11.5985 29.6584V29.6052H11.555L11.1091 29.3478C11.0636 29.3216 10.9897 29.3216 10.9449 29.3478L10.4976 29.6073H10.459V29.6577V29.6611C10.4604 29.677 10.4721 29.6929 10.4935 29.7053L10.9483 29.9676C10.9939 29.9938 11.0684 29.9938 11.1133 29.9676L11.5653 29.7046C11.5874 29.6929 11.5991 29.6756 11.5985 29.6584Z" fill="#E7E7F0"/>
<path d="M12.3074 29.2468V29.1936H12.264L11.8181 28.9362C11.7726 28.9099 11.6987 28.9099 11.6538 28.9362L11.2066 29.1957H11.168V29.2461V29.2495C11.1693 29.2654 11.1811 29.282 11.2025 29.2944L11.6573 29.5566C11.7028 29.5829 11.7767 29.5829 11.8222 29.5566L12.2743 29.2944C12.2964 29.2813 12.3081 29.264 12.3074 29.2468Z" fill="#E7E7F0"/>
<path d="M13.0145 28.8351V28.782H12.971L12.5251 28.5246C12.4796 28.4983 12.4057 28.4983 12.3609 28.5246L11.9136 28.784H11.875V28.8344V28.8379C11.8764 28.8537 11.8881 28.8703 11.9095 28.882L12.3643 29.1443C12.4099 29.1705 12.4844 29.1705 12.5293 29.1443L12.9813 28.8814C13.0034 28.8703 13.0152 28.8531 13.0145 28.8351Z" fill="#E7E7F0"/>
<path d="M13.7235 28.4235V28.3704H13.68L13.2341 28.1129C13.1886 28.0867 13.1147 28.0867 13.0699 28.1129L12.6226 28.3724H12.584V28.4228V28.4263C12.5854 28.4421 12.5971 28.4587 12.6185 28.4704L13.0733 28.7327C13.1189 28.7589 13.1927 28.7589 13.2383 28.7327L13.6903 28.4697C13.7124 28.458 13.7241 28.4408 13.7235 28.4235Z" fill="#E7E7F0"/>
<path d="M14.4305 28.0119V27.9588H14.387L13.9412 27.7013C13.8956 27.6751 13.8218 27.6751 13.7769 27.7013L13.3297 27.9608H13.291V28.0112V28.0147C13.2924 28.0305 13.3041 28.0464 13.3255 28.0588L13.7803 28.3211C13.8259 28.3473 13.8997 28.3473 13.9453 28.3211L14.3974 28.0581C14.4194 28.0464 14.4312 28.0291 14.4305 28.0119Z" fill="#E7E7F0"/>
<path d="M15.1395 27.6008V27.5476H15.096L14.6501 27.2902C14.6046 27.264 14.5307 27.264 14.4859 27.2902L14.0386 27.5497H14V27.6001V27.6035C14.0014 27.6194 14.0131 27.636 14.0345 27.6484L14.4893 27.9107C14.5349 27.9369 14.6087 27.9369 14.6543 27.9107L15.1063 27.6477C15.1291 27.6353 15.1402 27.618 15.1395 27.6008Z" fill="#E7E7F0"/>
<path d="M15.8484 27.1887V27.1355H15.805L15.3591 26.8781C15.3136 26.8518 15.2397 26.8518 15.1949 26.8781L14.7476 27.1376H14.709V27.188V27.1914C14.7104 27.2073 14.7221 27.2232 14.7435 27.2356L15.1983 27.4978C15.2439 27.5241 15.3177 27.5241 15.3633 27.4978L15.8153 27.2349C15.8374 27.2232 15.8484 27.2059 15.8484 27.1887Z" fill="#E7E7F0"/>
<path d="M16.5555 26.7775V26.7244H16.512L16.0662 26.4669C16.0206 26.4407 15.9468 26.4407 15.9019 26.4669L15.4547 26.7264H15.416V26.7768V26.7803H15.4167C15.4181 26.7962 15.4291 26.812 15.4505 26.8244L15.9053 27.0867C15.9509 27.1129 16.0247 27.1129 16.0703 27.0867L16.5224 26.8238C16.5444 26.812 16.5555 26.7948 16.5555 26.7775Z" fill="#E7E7F0"/>
<path d="M17.2645 26.3659V26.3127H17.221L16.7751 26.0553C16.7296 26.0291 16.6557 26.0291 16.6109 26.0553L16.1636 26.3148H16.125V26.3652V26.3686C16.1264 26.3845 16.1381 26.4004 16.1595 26.4128L16.6143 26.6751C16.6599 26.7013 16.7344 26.7013 16.7793 26.6751L17.2313 26.4121C17.2534 26.4004 17.2645 26.3831 17.2645 26.3659Z" fill="#E7E7F0"/>
<path d="M17.9722 25.9538V25.9006H17.9287L17.4829 25.6432C17.4373 25.617 17.3635 25.617 17.3179 25.6432L16.8707 25.9027H16.832V25.9531V25.9565C16.8334 25.9724 16.8451 25.9883 16.8665 26.0007L17.3214 26.263C17.3669 26.2892 17.4408 26.2892 17.4863 26.263L17.9384 26C17.9611 25.989 17.9722 25.971 17.9722 25.9538Z" fill="#E7E7F0"/>
<path d="M18.7883 25.4233L18.7434 25.4253L18.2989 25.1686C18.2534 25.1424 18.1795 25.1424 18.134 25.1686L17.5839 25.4881L17.5391 25.4909L17.5398 25.5392C17.5398 25.5413 17.5398 25.5434 17.5398 25.5461V25.5489C17.5418 25.5641 17.5536 25.5786 17.5736 25.5903L18.0284 25.8526C18.0739 25.8788 18.1478 25.8788 18.1933 25.8526L18.7544 25.5261C18.7779 25.5123 18.789 25.4943 18.7883 25.4757V25.4233Z" fill="#E7E7F0"/>
<path d="M18.8089 28.7907V28.7396H18.7661L18.3203 28.4822C18.2865 28.4622 18.2361 28.4573 18.194 28.4677C18.1802 28.4711 18.1671 28.476 18.1553 28.4829L17.7081 28.7424H17.6695V28.7652L14.523 30.5941L14.0758 30.8536H14.0371V30.904V30.9074C14.0371 30.9081 14.0385 30.9088 14.0385 30.9095C14.0392 30.913 14.0399 30.9164 14.0406 30.9192C14.0412 30.9199 14.0412 30.9212 14.0419 30.9219C14.0433 30.9247 14.0447 30.9281 14.0468 30.9309C14.0482 30.9323 14.0495 30.9344 14.0516 30.9357C14.0537 30.9378 14.0551 30.9399 14.0571 30.9419C14.0613 30.9454 14.0661 30.9489 14.0709 30.9516L14.5257 31.2139C14.5375 31.2201 14.5506 31.2256 14.5644 31.229C14.5782 31.2325 14.5934 31.2339 14.6086 31.2339C14.6382 31.2339 14.6679 31.2277 14.6907 31.2146L15.1428 30.9516L18.7751 28.8404C18.7986 28.8266 18.8096 28.8086 18.8089 28.7907Z" fill="#E7E7F0"/>
<path d="M9.57899 30.0068V29.9557L9.54999 29.9627C9.54792 29.9613 9.54655 29.9599 9.54447 29.9592L9.42231 29.8888C9.37676 29.8626 9.30292 29.8626 9.25736 29.8888L8.83912 30.1317L8.77148 30.1476L8.77217 30.2015C8.77355 30.218 8.7846 30.2339 8.80599 30.2463L8.92816 30.3167C8.97371 30.3429 9.04755 30.3436 9.09311 30.3167L9.54516 30.0544C9.56725 30.0413 9.5783 30.0248 9.57899 30.0068Z" fill="#E7E7F0"/>
<path d="M10.288 29.5952V29.5938V29.5434L10.259 29.5503C10.2569 29.5489 10.2555 29.5476 10.2535 29.5469L10.1313 29.4765C10.0857 29.4502 10.0119 29.4496 9.96635 29.4765L9.5481 29.7194L9.48047 29.7353L9.48116 29.7891C9.48254 29.8057 9.49358 29.8215 9.51498 29.834L9.63714 29.9044C9.68269 29.9306 9.75654 29.9313 9.80209 29.9044L10.2541 29.6421C10.2762 29.6297 10.2873 29.6124 10.288 29.5952Z" fill="#E7E7F0"/>
<path d="M10.995 29.184V29.1827V29.1323L10.966 29.1392C10.9639 29.1378 10.9626 29.1364 10.9605 29.1357L10.8383 29.0653C10.7928 29.0391 10.7189 29.0384 10.6734 29.0653L10.2551 29.3083L10.1875 29.3242L10.1882 29.378C10.1896 29.3946 10.2006 29.4104 10.222 29.4235L10.3442 29.4939C10.3897 29.5202 10.4636 29.5209 10.5091 29.4939L10.9605 29.2317C10.9833 29.2179 10.9943 29.2013 10.995 29.184Z" fill="#E7E7F0"/>
<path d="M11.704 28.7729V28.7715V28.7212L11.675 28.7281C11.6729 28.7267 11.6715 28.7253 11.6695 28.7246L11.5473 28.6542C11.5018 28.628 11.4279 28.6273 11.3824 28.6542L10.9641 28.8971L10.8965 28.913L10.8972 28.9669C10.8986 28.9834 10.9096 28.9993 10.9317 29.0124L11.0538 29.0828C11.0994 29.109 11.1732 29.1097 11.2188 29.0828L11.6709 28.8205C11.6922 28.8067 11.7033 28.7902 11.704 28.7729Z" fill="#E7E7F0"/>
<path d="M12.411 28.3605V28.3592V28.3088L12.382 28.3157C12.38 28.3143 12.3786 28.3129 12.3765 28.3122L12.2543 28.2418C12.2088 28.2156 12.1349 28.2156 12.0894 28.2418L11.6712 28.4848L11.6035 28.5007L11.6042 28.5545C11.6056 28.571 11.6166 28.5869 11.6387 28.6L11.7609 28.6704C11.8064 28.6966 11.8803 28.6966 11.9258 28.6704L12.3779 28.4082C12.3993 28.3951 12.4103 28.3778 12.411 28.3605Z" fill="#E7E7F0"/>
<path d="M13.12 27.9497V27.9483V27.8979L13.091 27.9048C13.0889 27.9034 13.0876 27.902 13.0855 27.9014L12.9633 27.831C12.9178 27.8047 12.8439 27.804 12.7984 27.831L12.3801 28.0739L12.3125 28.0898L12.3132 28.1436C12.3146 28.1602 12.3256 28.1761 12.3477 28.1885L12.4699 28.2589C12.5154 28.2851 12.5893 28.2851 12.6348 28.2589L13.0869 27.9966C13.1083 27.9835 13.1193 27.9669 13.12 27.9497Z" fill="#E7E7F0"/>
<path d="M13.827 27.5381V27.5367V27.4863L13.798 27.4932C13.796 27.4918 13.7946 27.4904 13.7925 27.4897L13.6704 27.4193C13.6248 27.3931 13.551 27.3924 13.5054 27.4193L13.0872 27.6623L13.0195 27.6782L13.0202 27.732C13.0216 27.7486 13.0326 27.7644 13.054 27.7769L13.1762 27.8472C13.2218 27.8735 13.2956 27.8735 13.3412 27.8472L13.7932 27.585C13.8153 27.5719 13.8263 27.5553 13.827 27.5381Z" fill="#E7E7F0"/>
<path d="M14.536 27.1259V27.1252V27.0742L14.507 27.0811C14.505 27.0797 14.5036 27.0783 14.5015 27.0776L14.3793 27.0072C14.3338 26.981 14.2599 26.9803 14.2144 27.0072L13.7962 27.2502L13.7285 27.266L13.7292 27.3199C13.7306 27.3364 13.7416 27.3523 13.763 27.3654L13.8852 27.4358C13.9307 27.4621 14.0046 27.4627 14.0501 27.4358L14.5022 27.1736C14.525 27.1604 14.5353 27.1432 14.536 27.1259Z" fill="#E7E7F0"/>
<path d="M15.243 26.7148V26.7134V26.663L15.2141 26.6699C15.212 26.6686 15.2106 26.6672 15.2085 26.6665L15.0864 26.5961C15.0408 26.5699 14.967 26.5692 14.9214 26.5961L14.5032 26.839L14.4355 26.8549L14.4362 26.9087C14.4376 26.9253 14.4487 26.9412 14.4701 26.9543L14.5922 27.0247C14.6378 27.0509 14.7116 27.0509 14.7572 27.0247L15.2085 26.7624C15.232 26.7493 15.243 26.7321 15.243 26.7148Z" fill="#E7E7F0"/>
<path d="M15.952 26.3032V26.3018V26.2514L15.923 26.2583C15.921 26.2569 15.9196 26.2556 15.9175 26.2549L15.7954 26.1845C15.7498 26.1583 15.676 26.1576 15.6304 26.1845L15.2122 26.4274L15.1445 26.4433L15.1452 26.4971C15.1466 26.5137 15.1576 26.5296 15.179 26.542L15.3012 26.6124C15.3467 26.6386 15.4206 26.6393 15.4662 26.6124L15.9175 26.3501C15.941 26.337 15.952 26.3204 15.952 26.3032Z" fill="#E7E7F0"/>
<path d="M16.6591 25.8918V25.8911V25.84L16.6301 25.847C16.628 25.8456 16.6266 25.8442 16.6246 25.8435L16.5024 25.7731C16.4568 25.7469 16.383 25.7469 16.3374 25.7731L15.9192 26.016L15.8516 26.0319L15.8523 26.0857C15.8536 26.1023 15.8647 26.1182 15.8861 26.1306L16.0082 26.201C16.0538 26.2272 16.1276 26.2272 16.1732 26.201L16.6252 25.9387C16.648 25.9256 16.6591 25.9091 16.6591 25.8918Z" fill="#E7E7F0"/>
<path d="M17.368 25.4802V25.4795V25.4284L17.3391 25.4353C17.337 25.4339 17.3356 25.4325 17.3335 25.4319L17.2114 25.3615C17.1658 25.3352 17.092 25.3352 17.0464 25.3615L16.6282 25.6044L16.5605 25.6203L16.5612 25.6741C16.5626 25.6907 16.5737 25.7066 16.5957 25.719L16.7179 25.7894C16.7635 25.8156 16.8373 25.8163 16.8829 25.7894L17.3342 25.5271C17.357 25.5147 17.368 25.4974 17.368 25.4802Z" fill="#E7E7F0"/>
<path d="M18.077 25.0686V25.0672V25.0168L18.048 25.0237C18.046 25.0223 18.0446 25.0209 18.0425 25.0203L17.9204 24.9498C17.8748 24.9236 17.801 24.9236 17.7554 24.9498L17.3372 25.1928L17.2695 25.2087L17.2702 25.2625C17.2716 25.2791 17.2826 25.2949 17.304 25.3074L17.4262 25.3784C17.4717 25.4047 17.5456 25.4047 17.5911 25.3784L18.0425 25.1162C18.066 25.1024 18.077 25.0858 18.077 25.0686Z" fill="#E7E7F0"/>
<path d="M10.5925 31.0228L10.5601 31.0277C10.5594 31.027 10.5587 31.027 10.558 31.0263L10.1032 30.7633C10.0576 30.7371 9.98377 30.7371 9.93891 30.7633L9.09898 31.2513L9.05273 31.2582V31.3051V31.3079C9.05411 31.3244 9.06516 31.3403 9.08656 31.3534L9.54137 31.6164C9.58692 31.6426 9.66078 31.6426 9.70564 31.6164L10.558 31.1208C10.5808 31.1077 10.5918 31.0905 10.5918 31.0732L10.5925 31.0228Z" fill="#E7E7F0"/>
<path d="M11.6627 31.2305L11.6316 31.2381C11.6302 31.2374 11.6295 31.2367 11.6288 31.236L11.174 30.9738C11.1285 30.9475 11.0546 30.9475 11.0091 30.9738L9.82958 31.6591L9.76953 31.6729V31.7233C9.77022 31.7405 9.78127 31.7571 9.80404 31.7702L10.2589 32.0325C10.3044 32.0587 10.3783 32.0587 10.4231 32.0325L11.6295 31.3313C11.6523 31.3182 11.6634 31.3009 11.6634 31.2837L11.6627 31.2305Z" fill="#E7E7F0"/>
<path d="M12.3853 31.6472L12.3543 31.6541C12.3529 31.6534 12.3522 31.6527 12.3515 31.6521L11.8967 31.3898C11.8511 31.3636 11.7773 31.3636 11.7317 31.3898L10.5522 32.0751L10.4922 32.0889V32.1393C10.4929 32.1566 10.5039 32.1731 10.5267 32.1863L10.9815 32.4485C11.0271 32.4748 11.1009 32.4748 11.1458 32.4485L12.3522 31.7473C12.375 31.7342 12.386 31.7169 12.386 31.6997L12.3853 31.6472Z" fill="#E7E7F0"/>
<path d="M19.5062 25.8413L19.4731 25.8468L19.4717 25.8461L19.0169 25.5831C18.9714 25.5569 18.8975 25.5569 18.852 25.5831L17.9975 26.0801L17.9492 26.0877V26.1353V26.1367V26.1387C17.9506 26.1553 17.9616 26.1712 17.983 26.1836L18.4379 26.4466C18.4834 26.4728 18.5573 26.4728 18.6021 26.4466L19.471 25.9414C19.4938 25.9282 19.5049 25.9103 19.5049 25.893V25.8413H19.5062Z" fill="#E7E7F0"/>
<path d="M20.191 26.2605L19.7362 25.9982C19.6907 25.972 19.6168 25.972 19.5713 25.9982L18.3483 26.7091C18.3027 26.7353 18.3034 26.7781 18.349 26.8043L18.8038 27.0666C18.8493 27.0928 18.9232 27.0928 18.968 27.0666L20.191 26.3557C20.2366 26.3295 20.2366 26.2867 20.191 26.2605Z" fill="#E7E7F0"/>
<path d="M20.6024 27.3671V27.3657V27.3153L20.5734 27.3222C20.5714 27.3209 20.57 27.3195 20.5679 27.3188L20.4458 27.2477C20.4002 27.2215 20.3264 27.2215 20.2808 27.2477L19.8626 27.4906L19.7949 27.5065L19.7956 27.5603C19.797 27.5769 19.808 27.5928 19.8301 27.6052L19.9523 27.6756C19.9978 27.7018 20.0717 27.7018 20.1172 27.6756L20.5693 27.4133C20.5907 27.4016 20.6017 27.3844 20.6024 27.3671Z" fill="#E7E7F0"/>
<path d="M20.9338 27.5586V27.5572V27.5068L20.9048 27.5137C20.9027 27.5123 20.9013 27.5109 20.8999 27.5102L20.7778 27.4399C20.7322 27.4136 20.6584 27.4129 20.6128 27.4399L20.1946 27.6828L20.127 27.6987L20.1276 27.7525C20.129 27.7691 20.1401 27.7849 20.1622 27.7974L20.2843 27.8678C20.3299 27.894 20.4037 27.894 20.4493 27.8678L20.9013 27.6055C20.9227 27.5924 20.9338 27.5758 20.9338 27.5586Z" fill="#E7E7F0"/>
<path d="M13.0585 31.2409L12.6037 30.9787C12.5581 30.9524 12.4843 30.9524 12.4387 30.9787L11.9867 31.2409C11.9418 31.2671 11.9418 31.3099 11.9874 31.3361L12.4422 31.5984C12.4877 31.6246 12.5616 31.6246 12.6065 31.5984L13.0585 31.3361C13.1041 31.3099 13.1041 31.2671 13.0585 31.2409Z" fill="#E7E7F0"/>
<path d="M8.87231 30.4155V30.3616L8.83918 30.3713C8.83918 30.3713 8.83849 30.3706 8.8378 30.3706L8.71564 30.3002C8.67009 30.274 8.59624 30.2733 8.55069 30.3002L8.02962 30.6032L7.95508 30.6246V30.6805C7.95715 30.6957 7.96888 30.7109 7.98958 30.7226L8.11174 30.793C8.1573 30.8192 8.23114 30.8192 8.27669 30.793L8.8378 30.4666C8.86265 30.4514 8.87369 30.4334 8.87231 30.4155Z" fill="#E7E7F0"/>
<path d="M9.44133 30.7941L8.98651 30.5319C8.94096 30.5057 8.86711 30.5057 8.82156 30.5319L8.3695 30.7948C8.32464 30.821 8.32464 30.8638 8.37019 30.8901L8.82501 31.1523C8.87056 31.1786 8.94441 31.1786 8.98996 31.1523L9.44202 30.8894C9.48757 30.8631 9.48688 30.8203 9.44133 30.7941Z" fill="#F4F5FA"/>
<path d="M10.1477 30.382L9.69285 30.1198C9.6473 30.0935 9.57345 30.0935 9.52859 30.1198L9.07653 30.3827C9.03167 30.409 9.03167 30.4517 9.07722 30.478L9.53204 30.7402C9.57759 30.7664 9.65213 30.7664 9.69699 30.7402L10.1491 30.4773C10.1939 30.4517 10.1932 30.409 10.1477 30.382Z" fill="#F4F5FA"/>
<path d="M10.8567 29.9709L10.4018 29.7086C10.3563 29.6824 10.2824 29.6824 10.2376 29.7086L9.78551 29.9716C9.74065 29.9978 9.74065 30.0406 9.7862 30.0668L10.241 30.3291C10.2866 30.3553 10.3611 30.3553 10.406 30.3291L10.858 30.0661C10.9029 30.0399 10.9022 29.9971 10.8567 29.9709Z" fill="#F4F5FA"/>
<path d="M11.5644 29.5597L11.1096 29.2975C11.064 29.2713 10.9902 29.2713 10.9446 29.2975L10.4925 29.5597C10.4477 29.586 10.4477 29.6288 10.4932 29.655L10.9481 29.9173C10.9936 29.9435 11.0681 29.9435 11.113 29.9173L11.5651 29.655C11.6106 29.6288 11.6106 29.586 11.5644 29.5597Z" fill="#F4F5FA"/>
<path d="M12.2734 29.1472L11.8185 28.8849C11.773 28.8587 11.6991 28.8587 11.6536 28.8849L11.2015 29.1472C11.1567 29.1734 11.1567 29.2162 11.2022 29.2424L11.657 29.5047C11.7026 29.5309 11.7764 29.5309 11.822 29.5047L12.2741 29.2424C12.3196 29.2169 12.3196 29.1741 12.2734 29.1472Z" fill="#F4F5FA"/>
<path d="M12.9806 28.7365L12.5258 28.4743C12.4803 28.448 12.4064 28.448 12.3609 28.4743L11.9088 28.7365C11.8633 28.7628 11.864 28.8055 11.9095 28.8318L12.3643 29.094C12.4099 29.1203 12.4837 29.121 12.5293 29.094L12.9806 28.8318C13.0269 28.8062 13.0269 28.7634 12.9806 28.7365Z" fill="#F4F5FA"/>
<path d="M13.6892 28.3249L13.2344 28.0626C13.1888 28.0364 13.115 28.0364 13.0694 28.0626L12.6181 28.3249C12.5725 28.3511 12.5725 28.3939 12.6188 28.4201L13.0736 28.6824C13.1191 28.7086 13.193 28.7093 13.2385 28.6824L13.6899 28.4201C13.7354 28.3939 13.7354 28.3511 13.6892 28.3249Z" fill="#F4F5FA"/>
<path d="M14.3979 27.9133L13.9431 27.651C13.8976 27.6248 13.8237 27.6248 13.7788 27.651L13.3268 27.9133C13.2812 27.9395 13.2819 27.9823 13.3275 28.0085L13.7823 28.2708C13.8279 28.297 13.9017 28.297 13.9473 28.2708L14.3986 28.0085C14.4442 27.9823 14.4435 27.9395 14.3979 27.9133Z" fill="#F4F5FA"/>
<path d="M15.1065 27.5022L14.6517 27.2399C14.6061 27.2137 14.5323 27.2137 14.4874 27.2399L14.036 27.5022C13.9905 27.5284 13.9905 27.5712 14.0367 27.5974L14.4915 27.8597C14.5371 27.8859 14.6109 27.8859 14.6565 27.8597L15.1086 27.5974C15.1527 27.5712 15.152 27.5284 15.1065 27.5022Z" fill="#F4F5FA"/>
<path d="M15.8127 27.09L15.3579 26.8278C15.3123 26.8015 15.2385 26.8015 15.1929 26.8278L14.7409 27.09C14.6953 27.1163 14.696 27.1591 14.7415 27.1853L15.1964 27.4475C15.2419 27.4738 15.3158 27.4744 15.3613 27.4475L15.8127 27.1853C15.8589 27.1591 15.8582 27.117 15.8127 27.09Z" fill="#F4F5FA"/>
<path d="M16.521 26.6789L16.0662 26.4166C16.0206 26.3904 15.9468 26.3904 15.9019 26.4166L15.4498 26.6789C15.4043 26.7051 15.405 26.7479 15.4505 26.7742L15.9053 27.0364C15.9509 27.0626 16.0247 27.0633 16.0703 27.0364L16.5224 26.7742C16.5672 26.7479 16.5672 26.7051 16.521 26.6789Z" fill="#F4F5FA"/>
<path d="M11.9705 30.1496L11.5156 29.8873C11.4701 29.8611 11.3962 29.8611 11.3514 29.8873L10.8993 30.1503C10.8538 30.1765 10.8538 30.2193 10.9 30.2456L11.3548 30.5078C11.4004 30.534 11.4749 30.534 11.5198 30.5078L11.9718 30.2449C12.016 30.2193 12.016 30.1765 11.9705 30.1496Z" fill="#F4F5FA"/>
<path d="M12.6772 29.738L12.2224 29.4757C12.1769 29.4495 12.103 29.4495 12.0581 29.4757L11.6061 29.7387C11.5612 29.7649 11.5605 29.8077 11.6068 29.8339L12.0616 30.0962C12.1071 30.1224 12.181 30.1224 12.2265 30.0962L12.6786 29.8332C12.7228 29.807 12.7228 29.7642 12.6772 29.738Z" fill="#F4F5FA"/>
<path d="M13.3865 29.3269L12.9316 29.0646C12.8861 29.0384 12.8122 29.0384 12.7667 29.0646L12.3153 29.3269C12.2698 29.3531 12.2698 29.3959 12.316 29.4221L12.7708 29.6843C12.8164 29.7106 12.8909 29.7106 12.9358 29.6843L13.3878 29.4221C13.4327 29.3959 13.432 29.3531 13.3865 29.3269Z" fill="#F4F5FA"/>
<path d="M14.0937 28.9157L13.6388 28.6535C13.5933 28.6272 13.5195 28.6272 13.4739 28.6535L13.0218 28.9157C12.977 28.942 12.977 28.9847 13.0225 29.011L13.4773 29.2732C13.5229 29.2995 13.5967 29.2995 13.6423 29.2732L14.0937 29.011C14.1399 28.9847 14.1392 28.942 14.0937 28.9157Z" fill="#F4F5FA"/>
<path d="M14.8029 28.5036L14.3481 28.2413C14.3025 28.2151 14.2287 28.2151 14.1831 28.2413L13.7311 28.5036C13.6855 28.5298 13.6862 28.5726 13.7318 28.5988L14.1866 28.8611C14.2321 28.8873 14.306 28.888 14.3515 28.8611L14.8029 28.5988C14.8492 28.5733 14.8485 28.5305 14.8029 28.5036Z" fill="#F4F5FA"/>
<path d="M15.5099 28.0925L15.0551 27.8302C15.0096 27.804 14.9357 27.804 14.8902 27.8302L14.4381 28.0925C14.3926 28.1187 14.3933 28.1615 14.4388 28.1877L14.8936 28.45C14.9392 28.4762 15.013 28.4769 15.0586 28.45L15.5106 28.1877C15.5562 28.1615 15.5555 28.1187 15.5099 28.0925Z" fill="#F4F5FA"/>
<path d="M16.2182 27.6809L15.7634 27.4186C15.7179 27.3924 15.644 27.3924 15.5992 27.4186L15.1471 27.6809C15.1016 27.7071 15.1022 27.7499 15.1478 27.7761L15.6026 28.0384C15.6482 28.0646 15.722 28.0653 15.7676 28.0384L16.2196 27.7761C16.2645 27.7499 16.2638 27.7071 16.2182 27.6809Z" fill="#F4F5FA"/>
<path d="M16.9272 27.2697L16.4724 27.0075C16.4269 26.9812 16.353 26.9812 16.3081 27.0075L15.8561 27.2697C15.8105 27.296 15.8112 27.3387 15.8568 27.365L16.3116 27.6272C16.3572 27.6535 16.431 27.6535 16.4765 27.6272L16.9286 27.365C16.9735 27.3387 16.9728 27.296 16.9272 27.2697Z" fill="#F4F5FA"/>
<path d="M17.6345 26.8576L17.1797 26.5954C17.1341 26.5691 17.0603 26.5691 17.0154 26.5954L16.5634 26.8576C16.5178 26.8838 16.5178 26.9266 16.5641 26.9529L17.0189 27.2151C17.0644 27.2414 17.1383 27.242 17.1838 27.2151L17.6352 26.9529C17.6808 26.9266 17.6801 26.8845 17.6345 26.8576Z" fill="#F4F5FA"/>
<path d="M18.3432 26.446L17.8884 26.1837C17.8429 26.1575 17.769 26.1575 17.7242 26.1837L17.2721 26.446C17.2266 26.4722 17.2272 26.515 17.2728 26.5412L17.7276 26.8035C17.7732 26.8297 17.847 26.8304 17.8926 26.8035L18.3446 26.5412C18.3895 26.515 18.3888 26.4722 18.3432 26.446Z" fill="#F4F5FA"/>
<path d="M17.2303 26.2673L16.7755 26.005C16.7299 25.9788 16.6561 25.9788 16.6112 26.005L16.1592 26.2673C16.1136 26.2935 16.1136 26.3363 16.1592 26.3625L16.614 26.6248C16.6595 26.651 16.7334 26.651 16.7789 26.6248L17.2303 26.3625C17.2765 26.3363 17.2765 26.2935 17.2303 26.2673Z" fill="#F4F5FA"/>
<path d="M17.9373 25.8561L17.4825 25.5939C17.437 25.5677 17.3631 25.5677 17.3183 25.5939L16.8662 25.8561C16.8206 25.8824 16.8206 25.9252 16.8662 25.9514L17.321 26.2136C17.3666 26.2399 17.4404 26.2399 17.486 26.2136L17.9373 25.9514C17.9836 25.9252 17.9836 25.8824 17.9373 25.8561Z" fill="#F4F5FA"/>
<path d="M12.3098 32.4513L11.855 32.1891C11.8094 32.1629 11.7356 32.1629 11.6907 32.1891L11.2386 32.452C11.1938 32.4783 11.1938 32.5211 11.2393 32.5473L11.6941 32.8096C11.7397 32.8358 11.8142 32.8358 11.8591 32.8096L12.3112 32.5466C12.3553 32.5204 12.3553 32.4776 12.3098 32.4513Z" fill="#F4F5FA"/>
<path d="M13.0188 32.0393L12.5639 31.777C12.5184 31.7508 12.4445 31.7508 12.3997 31.777L11.9476 32.0393C11.9028 32.0655 11.9028 32.1083 11.9483 32.1345L12.4031 32.3968C12.4487 32.423 12.5225 32.423 12.5681 32.3968L13.0201 32.1338C13.0643 32.109 13.0643 32.0655 13.0188 32.0393Z" fill="#F4F5FA"/>
<path d="M13.7277 31.6281L13.2729 31.3659C13.2274 31.3396 13.1535 31.3396 13.1087 31.3659L12.6566 31.6288C12.6117 31.655 12.6117 31.6978 12.6573 31.7241L13.1121 31.9863C13.1577 32.0126 13.2322 32.0126 13.2771 31.9863L13.7291 31.7234C13.7733 31.6971 13.7733 31.6544 13.7277 31.6281Z" fill="#F4F5FA"/>
<path d="M14.4355 31.2165L13.9807 30.9542C13.9351 30.928 13.8612 30.928 13.8157 30.9542L13.3636 31.2165C13.3188 31.2427 13.3188 31.2855 13.3643 31.3117L13.8192 31.574C13.8647 31.6002 13.9392 31.6002 13.9841 31.574L14.4362 31.3117C14.481 31.2855 14.481 31.2427 14.4355 31.2165Z" fill="#F4F5FA"/>
<path d="M11.2632 30.5617L10.8083 30.2995C10.7628 30.2732 10.6889 30.2732 10.6441 30.2995L10.192 30.5624C10.1472 30.5886 10.1465 30.6314 10.1927 30.6576L10.6475 30.9199C10.6931 30.9461 10.7669 30.9461 10.8125 30.9199L11.2645 30.657C11.3087 30.6307 11.3087 30.5879 11.2632 30.5617Z" fill="#F4F5FA"/>
<path d="M18.7561 25.3806L18.3012 25.1183C18.2557 25.0921 18.1818 25.0921 18.1363 25.1183L17.5752 25.4448C17.5296 25.471 17.5296 25.5138 17.5752 25.54L18.03 25.8023C18.0755 25.8285 18.1494 25.8285 18.1949 25.8023L18.7561 25.4765C18.8023 25.4496 18.8023 25.4068 18.7561 25.3806Z" fill="#F4F5FA"/>
<path d="M18.7768 28.6936L18.322 28.4313C18.2764 28.4051 18.2026 28.4051 18.157 28.4313L14.0726 30.8048C14.0278 30.831 14.0278 30.8738 14.0733 30.9L14.5281 31.1623C14.5737 31.1885 14.6475 31.1885 14.6931 31.1623L18.7775 28.7888C18.8224 28.7633 18.8224 28.7205 18.7768 28.6936Z" fill="#F4F5FA"/>
<path d="M9.54447 29.9072L9.42231 29.8361C9.37676 29.8098 9.30292 29.8098 9.25736 29.8361L8.8053 30.0983C8.75975 30.1246 8.76044 30.1674 8.80599 30.1936L8.92816 30.264C8.97371 30.2902 9.04755 30.2902 9.0931 30.264L9.54516 30.0017C9.59072 29.9762 9.59003 29.9334 9.54447 29.9072Z" fill="#F4F5FA"/>
<path d="M10.2535 29.4961L10.1313 29.4257C10.0857 29.3995 10.0119 29.3988 9.96635 29.4257L9.51429 29.688C9.46874 29.7142 9.46943 29.757 9.51498 29.7832L9.63713 29.8536C9.68269 29.8798 9.75654 29.8798 9.80209 29.8536L10.2541 29.5913C10.2997 29.5651 10.299 29.5223 10.2535 29.4961Z" fill="#F4F5FA"/>
<path d="M10.9607 29.0849L10.8386 29.0146C10.793 28.9883 10.7192 28.9876 10.6736 29.0146L10.2216 29.2768C10.176 29.3031 10.176 29.3458 10.2223 29.3727L10.3444 29.4432C10.39 29.4694 10.4645 29.4694 10.5094 29.4432L10.9607 29.1809C11.007 29.1533 11.0063 29.1112 10.9607 29.0849Z" fill="#F4F5FA"/>
<path d="M11.669 28.6729L11.5469 28.6024C11.5013 28.5762 11.4275 28.5755 11.3819 28.6024L10.9306 28.8647C10.885 28.8909 10.885 28.9337 10.9313 28.96L11.0534 29.0303C11.099 29.0566 11.1728 29.0566 11.2184 29.0303L11.6704 28.7681C11.7153 28.7419 11.7146 28.6991 11.669 28.6729Z" fill="#F4F5FA"/>
<path d="M12.378 28.2615L12.2559 28.1911C12.2103 28.1648 12.1365 28.1648 12.0909 28.1911L11.6395 28.4533C11.594 28.4796 11.594 28.5223 11.6402 28.5493L11.7624 28.6203C11.8079 28.6466 11.8825 28.6466 11.9273 28.6203L12.3794 28.3581C12.4243 28.3305 12.4236 28.2877 12.378 28.2615Z" fill="#F4F5FA"/>
<path d="M13.0855 27.8498L12.9633 27.7794C12.9178 27.7532 12.8439 27.7532 12.7984 27.7794L12.3463 28.0417C12.3008 28.0679 12.3015 28.1107 12.347 28.1369L12.4692 28.208C12.5147 28.2343 12.5893 28.2343 12.6341 28.208L13.0862 27.9458C13.1317 27.9188 13.131 27.8761 13.0855 27.8498Z" fill="#F4F5FA"/>
<path d="M13.7945 27.4382L13.6723 27.3678C13.6268 27.3416 13.5522 27.3416 13.5074 27.3678L13.0553 27.6301C13.0098 27.6563 13.0104 27.6991 13.056 27.7253L13.1782 27.7964C13.2237 27.8226 13.2976 27.8226 13.3431 27.7964L13.7945 27.5341C13.8407 27.5079 13.84 27.4651 13.7945 27.4382Z" fill="#F4F5FA"/>
<path d="M14.5012 27.0266L14.3791 26.9562C14.3335 26.93 14.2597 26.93 14.2141 26.9562L13.7621 27.2191C13.7172 27.2454 13.7172 27.2882 13.7628 27.3144L13.8849 27.3848C13.9305 27.411 14.0043 27.411 14.0499 27.3848L14.5019 27.1218C14.5475 27.0956 14.5468 27.0528 14.5012 27.0266Z" fill="#F4F5FA"/>
<path d="M15.2102 26.615L15.0881 26.5446C15.0425 26.5183 14.968 26.5183 14.9231 26.5446L14.4711 26.8075C14.4262 26.8337 14.4262 26.8765 14.4717 26.9028L14.5939 26.9732C14.6395 26.9994 14.7133 26.9994 14.7589 26.9732L15.2109 26.7102C15.2565 26.684 15.2565 26.6412 15.2102 26.615Z" fill="#F4F5FA"/>
<path d="M15.9173 26.2034L15.7951 26.133C15.7495 26.1067 15.6757 26.1067 15.6302 26.133L15.1781 26.3959C15.1332 26.4221 15.1332 26.4649 15.1788 26.4912L15.3009 26.5622C15.3465 26.5885 15.421 26.5885 15.4659 26.5622L15.918 26.2993C15.9635 26.2731 15.9635 26.2303 15.9173 26.2034Z" fill="#F4F5FA"/>
<path d="M16.6262 25.7917L16.5041 25.7213C16.4585 25.6951 16.384 25.6951 16.3391 25.7213L15.8871 25.9843C15.8422 26.0105 15.8422 26.0533 15.8878 26.0795L16.0099 26.1499C16.0555 26.1762 16.1293 26.1762 16.1749 26.1499L16.6269 25.887C16.6725 25.8614 16.6725 25.8179 16.6262 25.7917Z" fill="#F4F5FA"/>
<path d="M17.3335 25.3806L17.2114 25.3102C17.1658 25.284 17.0913 25.284 17.0464 25.3102L16.5944 25.5731C16.5488 25.5994 16.5495 25.6422 16.5951 25.6684L16.7172 25.7388C16.7628 25.765 16.8366 25.765 16.8822 25.7388L17.3342 25.4758C17.3798 25.4496 17.3798 25.4068 17.3335 25.3806Z" fill="#F4F5FA"/>
<path d="M18.0435 24.969L17.9214 24.8986C17.8758 24.8723 17.802 24.8723 17.7564 24.8986L17.305 25.1608C17.2602 25.1871 17.2602 25.2299 17.3057 25.2561L17.4279 25.3265C17.4734 25.3527 17.5473 25.3527 17.5928 25.3265L18.0449 25.0642C18.0891 25.038 18.0891 24.9952 18.0435 24.969Z" fill="#F4F5FA"/>
<path d="M8.83711 30.3183L8.71495 30.248C8.6694 30.2217 8.59555 30.221 8.55 30.248L7.9889 30.5744C7.94335 30.6006 7.94404 30.6434 7.98959 30.6696L8.11174 30.74C8.1573 30.7663 8.23115 30.7663 8.2767 30.74L8.8378 30.4136C8.88335 30.3874 8.88266 30.3453 8.83711 30.3183Z" fill="#F4F5FA"/>
<path d="M10.5597 30.976L10.1049 30.713C10.0593 30.6868 9.98547 30.6868 9.94061 30.713L9.08825 31.2086C9.04339 31.2348 9.04339 31.2776 9.08894 31.3038L9.54376 31.5668C9.58931 31.593 9.66316 31.593 9.70802 31.5668L10.5604 31.0712C10.6052 31.045 10.6052 31.0022 10.5597 30.976Z" fill="#F4F5FA"/>
<path d="M11.6293 31.1843L11.1745 30.922C11.1289 30.8958 11.0551 30.8958 11.0095 30.922L9.80309 31.6232C9.75823 31.6495 9.75823 31.6923 9.80378 31.7185L10.2586 31.9808C10.3042 32.007 10.378 32.007 10.4229 31.9808L11.6293 31.2795C11.6755 31.2533 11.6755 31.2105 11.6293 31.1843Z" fill="#F4F5FA"/>
<path d="M12.3532 31.601L11.8984 31.338C11.8528 31.3118 11.779 31.3118 11.7341 31.338L10.5277 32.0392C10.4828 32.0655 10.4828 32.1083 10.5284 32.1345L10.9832 32.3974C11.0288 32.4236 11.1026 32.4236 11.1475 32.3974L12.3539 31.6962C12.3987 31.67 12.3987 31.6272 12.3532 31.601Z" fill="#F4F5FA"/>
<path d="M19.4737 25.7948L19.0189 25.5319C18.9733 25.5057 18.8995 25.5057 18.8539 25.5319L17.985 26.0371C17.9394 26.0633 17.9401 26.1061 17.9857 26.1323L18.4405 26.3953C18.4861 26.4215 18.5599 26.4215 18.6048 26.3953L19.4737 25.8901C19.5199 25.8639 19.5192 25.8211 19.4737 25.7948Z" fill="#F4F5FA"/>
<path d="M20.191 26.2092L19.7362 25.9469C19.6907 25.9207 19.6168 25.9207 19.5713 25.9469L18.3483 26.6578C18.3027 26.684 18.3034 26.7268 18.349 26.753L18.8038 27.0153C18.8493 27.0415 18.9232 27.0415 18.968 27.0153L20.191 26.3044C20.2366 26.2789 20.2366 26.2361 20.191 26.2092Z" fill="#F4F5FA"/>
<path d="M20.5679 27.2675L20.4451 27.1964C20.3995 27.1702 20.3257 27.1702 20.2808 27.1964L19.8287 27.4587C19.7832 27.4849 19.7839 27.5277 19.8294 27.5539L19.9523 27.625C19.9978 27.6513 20.0717 27.6513 20.1165 27.625L20.5686 27.3628C20.6142 27.3365 20.6142 27.2937 20.5679 27.2675Z" fill="#F4F5FA"/>
<path d="M20.8999 27.4589L20.7778 27.3878C20.7322 27.3616 20.6584 27.3616 20.6128 27.3878L20.1608 27.6501C20.1152 27.6763 20.1159 27.7191 20.1615 27.7453L20.2836 27.8157C20.3292 27.842 20.403 27.8427 20.4486 27.8157L20.9006 27.5535C20.9462 27.528 20.9462 27.4851 20.8999 27.4589Z" fill="#F4F5FA"/>
<path d="M18.0034 27.4809L17.5486 27.2187C17.503 27.1924 17.4292 27.1917 17.3836 27.2187L16.9323 27.4809C16.8867 27.5072 16.8874 27.5499 16.9329 27.5762L17.3878 27.8384C17.4333 27.8647 17.5072 27.8647 17.552 27.8384L18.0034 27.5762C18.0489 27.5499 18.0489 27.5072 18.0034 27.4809Z" fill="#F4F5FA"/>
<path d="M18.7124 27.0695L18.2576 26.8073C18.212 26.781 18.1382 26.781 18.0926 26.8073L17.6412 27.0695C17.5957 27.0957 17.5964 27.1385 17.6419 27.1648L18.0968 27.427C18.1423 27.4533 18.2162 27.4533 18.261 27.427L18.7124 27.1648C18.7579 27.1378 18.7579 27.0957 18.7124 27.0695Z" fill="#F4F5FA"/>
<path d="M18.7241 27.8979L18.2693 27.6349C18.2237 27.6087 18.1499 27.6087 18.105 27.6349L17.653 27.8972C17.6074 27.9234 17.6081 27.9662 17.6537 27.9924L18.1085 28.2554C18.154 28.2816 18.2279 28.2816 18.2727 28.2554L18.7248 27.9931C18.7703 27.9669 18.7697 27.9241 18.7241 27.8979Z" fill="#F4F5FA"/>
<path d="M19.4343 27.4865L18.9795 27.2243C18.934 27.198 18.8601 27.198 18.8153 27.2243L18.3639 27.4865C18.3183 27.5127 18.319 27.5555 18.3646 27.5817L18.8194 27.8447C18.865 27.8709 18.9388 27.8709 18.9837 27.8447L19.4357 27.5824C19.4806 27.5555 19.4799 27.5127 19.4343 27.4865Z" fill="#F4F5FA"/>
<path d="M20.1414 27.0751L19.6866 26.8122C19.641 26.7859 19.5672 26.7859 19.5223 26.8122L19.0709 27.0744C19.0254 27.1006 19.0261 27.1434 19.0716 27.1697L19.5264 27.4326C19.572 27.4588 19.6458 27.4588 19.6907 27.4326L20.1421 27.1704C20.1876 27.1434 20.1869 27.1013 20.1414 27.0751Z" fill="#F4F5FA"/>
<path d="M20.9126 26.6264L20.4578 26.3634C20.4122 26.3372 20.3384 26.3372 20.2928 26.3634L19.778 26.6629C19.7324 26.6892 19.7331 26.732 19.7787 26.7582L20.2335 27.0212C20.279 27.0474 20.3529 27.0474 20.3977 27.0212L20.9126 26.7216C20.9588 26.6954 20.9581 26.6526 20.9126 26.6264Z" fill="#F4F5FA"/>
<path d="M16.5861 28.3037L16.1313 28.0414C16.0857 28.0152 16.0119 28.0145 15.9663 28.0414L15.5143 28.3037C15.4687 28.3299 15.4694 28.3727 15.515 28.3989L15.9698 28.6612C16.0153 28.6874 16.0892 28.6874 16.1347 28.6612L16.5868 28.3989C16.6324 28.3727 16.6324 28.3306 16.5861 28.3037Z" fill="#F4F5FA"/>
<path d="M17.2944 27.8921L16.8396 27.6298C16.794 27.6036 16.7202 27.6029 16.6746 27.6298L16.2233 27.8921C16.1777 27.9183 16.1784 27.9611 16.224 27.9873L16.6788 28.2496C16.7243 28.2758 16.7975 28.2758 16.843 28.2496L17.2944 27.9873C17.3407 27.9611 17.3407 27.9183 17.2944 27.8921Z" fill="#F4F5FA"/>
<path d="M17.3094 28.7211L16.8545 28.4581C16.809 28.4319 16.7351 28.4319 16.6903 28.4581L16.2389 28.7204C16.1933 28.7466 16.194 28.7894 16.2396 28.8157L16.6944 29.0786C16.74 29.1048 16.8131 29.1048 16.8587 29.0786L17.31 28.8163C17.3556 28.7901 17.3549 28.7473 17.3094 28.7211Z" fill="#F4F5FA"/>
<path d="M18.0171 28.309L17.5622 28.046C17.5167 28.0198 17.4429 28.0198 17.398 28.046L16.9459 28.3083C16.9004 28.3345 16.9011 28.3773 16.9466 28.4035L17.4014 28.6665C17.447 28.6927 17.5208 28.6927 17.5657 28.6665L18.0178 28.4042C18.0633 28.378 18.0626 28.3352 18.0171 28.309Z" fill="#F4F5FA"/>
<path d="M15.1701 29.1267L14.7153 28.8644C14.6697 28.8382 14.5959 28.8382 14.5503 28.8644L14.0983 29.1267C14.0527 29.1529 14.0534 29.1957 14.099 29.2219L14.5538 29.4842C14.5993 29.5104 14.6732 29.5104 14.718 29.4842L15.1701 29.2219C15.2157 29.1957 15.2157 29.1529 15.1701 29.1267Z" fill="#F4F5FA"/>
<path d="M15.8791 28.715L15.4243 28.4528C15.3787 28.4265 15.3042 28.4265 15.2593 28.4528L14.8073 28.715C14.7617 28.7412 14.7624 28.784 14.8079 28.8103L15.2628 29.0725C15.3083 29.0988 15.3822 29.0988 15.427 29.0725L15.8791 28.8103C15.9246 28.7847 15.9246 28.7419 15.8791 28.715Z" fill="#F4F5FA"/>
<path d="M15.8928 29.5439L15.4379 29.2809C15.3924 29.2547 15.3185 29.2547 15.273 29.2809L14.8209 29.5432C14.7754 29.5694 14.7761 29.6122 14.8216 29.6384L15.2764 29.9014C15.322 29.9276 15.3952 29.9276 15.4407 29.9014L15.8928 29.6391C15.9383 29.6129 15.9383 29.5701 15.8928 29.5439Z" fill="#F4F5FA"/>
<path d="M16.5998 29.1322L16.145 28.8693C16.0994 28.8431 16.0256 28.8431 15.98 28.8693L15.528 29.1315C15.4824 29.1578 15.4831 29.2006 15.5287 29.2268L15.9835 29.4898C16.029 29.516 16.1022 29.516 16.1477 29.4898L16.5991 29.2275C16.6453 29.2013 16.6453 29.1585 16.5998 29.1322Z" fill="#F4F5FA"/>
<path d="M13.7541 29.9494L13.2993 29.6872C13.2537 29.6609 13.1799 29.6609 13.1343 29.6872L12.6823 29.9494C12.6367 29.9756 12.6374 30.0184 12.6829 30.0446L13.1378 30.3069C13.1833 30.3331 13.2565 30.3331 13.302 30.3069L13.7541 30.0446C13.8003 30.0184 13.8003 29.9763 13.7541 29.9494Z" fill="#F4F5FA"/>
<path d="M14.4631 29.5378L14.0083 29.2755C13.9627 29.2493 13.8882 29.2493 13.8433 29.2755L13.3912 29.5378C13.3457 29.564 13.3464 29.6068 13.3919 29.633L13.8468 29.8953C13.8923 29.9215 13.9662 29.9215 14.011 29.8953L14.4624 29.633C14.5086 29.6068 14.5086 29.564 14.4631 29.5378Z" fill="#F4F5FA"/>
<path d="M14.4767 30.3671L14.0219 30.1041C13.9764 30.0779 13.9025 30.0779 13.857 30.1041L13.4049 30.3664C13.3594 30.3926 13.3601 30.4354 13.4056 30.4617L13.8604 30.7246C13.906 30.7508 13.9798 30.7508 14.0247 30.7246L14.4767 30.4623C14.5223 30.4361 14.5223 30.3933 14.4767 30.3671Z" fill="#F4F5FA"/>
<path d="M15.1857 29.955L14.7309 29.692C14.6854 29.6658 14.6115 29.6658 14.566 29.692L14.1139 29.9543C14.0683 29.9805 14.069 30.0233 14.1146 30.0495L14.5694 30.3125C14.615 30.3387 14.6888 30.3387 14.7337 30.3125L15.1857 30.0502C15.2313 30.024 15.2313 29.9812 15.1857 29.955Z" fill="#F4F5FA"/>
<path d="M12.3378 30.7727L11.883 30.5104C11.8374 30.4842 11.7629 30.4842 11.718 30.5104L11.266 30.7733C11.2211 30.7996 11.2211 30.8424 11.2667 30.8686L11.7215 31.1308C11.767 31.1571 11.8409 31.1571 11.8858 31.1308L12.3378 30.8686C12.3841 30.8417 12.3841 30.7989 12.3378 30.7727Z" fill="#F4F5FA"/>
<path d="M13.0464 30.3615L12.5916 30.0993C12.546 30.073 12.4715 30.073 12.4266 30.0993L11.9752 30.3615C11.9297 30.3878 11.9304 30.4305 11.9759 30.4568L12.4307 30.719C12.4763 30.7453 12.5501 30.7453 12.595 30.719L13.0471 30.4568C13.0926 30.4305 13.0926 30.3878 13.0464 30.3615Z" fill="#F4F5FA"/>
<path d="M13.0605 31.1893L12.6056 30.9264C12.5601 30.9002 12.4862 30.9002 12.4407 30.9264L11.9886 31.1887C11.9438 31.2149 11.9438 31.2577 11.9893 31.2839L12.4441 31.5469C12.4897 31.5731 12.5635 31.5731 12.6084 31.5469L13.0605 31.2846C13.106 31.2584 13.106 31.2156 13.0605 31.1893Z" fill="#F4F5FA"/>
<path d="M13.7697 30.7787L13.3149 30.5158C13.2693 30.4895 13.1955 30.4895 13.1499 30.5158L12.6979 30.778C12.6523 30.8043 12.653 30.847 12.6986 30.8733L13.1534 31.1362C13.1989 31.1625 13.2728 31.1625 13.3177 31.1362L13.7697 30.874C13.8153 30.8477 13.8153 30.805 13.7697 30.7787Z" fill="#F4F5FA"/>
<path d="M19.4846 28.2819L19.0297 28.0197C18.9842 27.9934 18.9103 27.9934 18.8648 28.0197L18.4127 28.2819C18.3672 28.3082 18.3679 28.351 18.4134 28.3772L18.8682 28.6394C18.9138 28.6657 18.9876 28.6664 19.0332 28.6394L19.4846 28.3772C19.5301 28.351 19.5301 28.3082 19.4846 28.2819Z" fill="#F4F5FA"/>
<path d="M20.1909 27.8703L19.7361 27.608C19.6905 27.5818 19.6167 27.5818 19.5718 27.608L19.1198 27.8703C19.0742 27.8965 19.0749 27.9393 19.1204 27.9656L19.5753 28.2278C19.6208 28.2541 19.6947 28.2547 19.7402 28.2278L20.1923 27.9656C20.2371 27.9393 20.2371 27.8965 20.1909 27.8703Z" fill="#F4F5FA"/>
<path d="M21.6249 27.0378L21.1701 26.7755C21.1246 26.7493 21.0507 26.7493 21.0052 26.7755L20.5531 27.0378C20.5082 27.064 20.5082 27.1068 20.5538 27.133L21.0086 27.3953C21.0542 27.4215 21.128 27.4215 21.1736 27.3953L21.6256 27.133C21.6705 27.1068 21.6705 27.064 21.6249 27.0378Z" fill="#F4F5FA"/>
<path d="M9.91474 24.8364L9.71804 24.9054L7.73104 23.6976C7.73104 23.6976 7.20721 23.4844 7.10506 23.0565C7.00292 22.6286 7.07746 21.9115 7.07746 21.9115L7.28243 21.438L8.59513 19.3289L9.33085 15.4343L9.31291 14.8628L5.99389 16.9927L5.09529 21.3545L3.76809 23.4913L3.41128 24.0669C3.41128 24.0669 3.3395 24.071 3.39264 24.6721C3.44579 25.2733 4.12905 25.7764 4.12905 25.7764L6.20163 27.0353C6.42593 27.1643 6.702 27.1643 6.92631 27.0353L9.78774 25.3837C9.87194 25.3354 9.91335 25.2505 9.91335 25.1656V24.8364H9.91474Z" fill="#CBCCCD"/>
<path d="M3.56255 24.0427C3.71163 23.4167 4.36591 22.4104 5.1948 21.1488L5.21136 21.124L5.99471 16.7283L9.31372 14.5998L9.31441 14.5991L9.59669 14.6502L8.81335 19.0452L8.79541 19.0693C7.9679 20.3323 7.31362 21.3393 7.16316 21.9639C7.0058 22.612 7.63523 23.3277 7.73255 23.4333L7.73876 23.4374L9.78994 24.619C9.87345 24.668 9.91555 24.7522 9.91555 24.8364C9.91555 24.9213 9.87345 25.0041 9.78994 25.0531L9.76027 25.0704L6.92781 26.7054C6.70351 26.8358 6.42744 26.8358 6.20313 26.7067L4.13125 25.512C4.13125 25.512 4.13125 25.51 4.12987 25.51C4.03049 25.4016 3.4045 24.6887 3.56255 24.0427Z" fill="#E9EAF0"/>
<path d="M9.33229 15.1703L8.8119 19.0449L7.54199 21.0491L3.76953 23.2273L5.09672 21.0906L5.99532 16.7287L9.31434 14.5981L9.33229 15.1703Z" fill="#CDD1DD"/>
<path d="M6.20292 26.7068V27.0394L3.93917 25.7267C3.90397 25.6888 3.07715 24.8281 3.28282 23.9765C3.46848 23.1945 4.67696 21.4153 4.93784 21.015L5.71221 16.6772L5.99449 16.7276L5.21046 21.1233L5.1932 21.1482C4.365 22.4105 3.71003 23.4168 3.56165 24.042C3.4036 24.688 4.02958 25.401 4.12896 25.51C4.13035 25.51 4.13034 25.5114 4.13034 25.5114L6.20292 26.7068Z" fill="#CBCCCD"/>
<path d="M-2.37695 15.5278L-1.94905 24.6436L16.5199 13.9805L16.5468 14.5512C16.5661 14.955 16.3038 15.4429 15.9615 15.6403L-1.26716 25.587C-1.60949 25.7851 -1.9035 25.6181 -1.92282 25.2143L-2.37695 15.5278Z" fill="#DEE0E9"/>
<path d="M15.4505 2.25465C15.73 2.09316 15.9682 2.22843 15.984 2.55833L16.5196 13.9799L-1.94931 24.643L-2.37721 15.5273L-2.48557 13.2214C-2.50075 12.8922 -2.28611 12.4947 -2.00797 12.3339L15.4505 2.25465Z" fill="#554F59"/>
<path d="M15.8015 2.91177L16.2853 13.225C16.2943 13.4155 16.1963 13.5949 16.0313 13.6901L-1.51 23.8177C-1.63216 23.8881 -1.78607 23.8046 -1.79297 23.6631L-2.27678 13.3499C-2.28575 13.1594 -2.18774 12.98 -2.02279 12.8847L15.5185 2.75718C15.6407 2.68609 15.7946 2.77029 15.8015 2.91177Z" fill="#5F8DD9"/>
<path d="M13.383 12.0079L4.95746 16.8605L4.74074 12.3219L4.69727 11.3951L13.127 6.54248L13.1698 7.46937L13.383 12.0079Z" fill="#C6D1D6"/>
<path d="M9.33352 16.1896L0.90863 21.0421L0.691231 16.5036L0.648438 15.5767L9.07746 10.7241L9.12025 11.651L9.33352 16.1896Z" fill="#E1E7E9"/>
<path d="M13.1698 7.46937L4.74074 12.3219L4.69727 11.3951L13.127 6.54248L13.1698 7.46937Z" fill="#546F9E"/>
<path d="M12.3267 7.83392L12.8698 7.52057L12.8436 6.96223L12.8381 6.84766L12.2949 7.1603L12.3267 7.83392Z" fill="#FF6F63"/>
<path d="M9.12025 11.651L0.691231 16.5036L0.648438 15.5767L9.07746 10.7241L9.12025 11.651Z" fill="#546F9E"/>
<path d="M8.27784 12.0163L8.82031 11.7037L8.79409 11.1446L8.78925 11.0308L8.24609 11.3434L8.27784 12.0163Z" fill="#FF6F63"/>
<path d="M15.4396 2.02599C15.4299 2.02116 15.4196 2.01771 15.4092 2.01426C15.3989 2.0108 15.3885 2.00805 15.3775 2.00598C15.3664 2.00391 15.3547 2.00182 15.3437 2.00113C15.3312 1.99975 15.3188 1.99977 15.3064 2.00046C15.2926 2.00115 15.2788 2.00252 15.2643 2.00459C15.2477 2.00735 15.2312 2.01081 15.2139 2.01565C15.1904 2.02255 15.1663 2.03152 15.1414 2.04256C15.1249 2.05015 15.1083 2.05843 15.0911 2.06879L-2.36675 12.148C-2.41989 12.1784 -2.47097 12.2177 -2.5179 12.2633C-2.53998 12.2853 -2.56207 12.3081 -2.58277 12.3323C-2.59865 12.3502 -2.61314 12.3695 -2.62763 12.3889C-2.64006 12.4054 -2.65179 12.4227 -2.66283 12.4399C-2.67319 12.4558 -2.68354 12.4724 -2.6932 12.4889C-2.70217 12.5048 -2.71114 12.5207 -2.72012 12.5366C-2.7284 12.5524 -2.73668 12.5683 -2.74427 12.5842C-2.75186 12.6001 -2.75876 12.6159 -2.76567 12.6325C-2.77257 12.6491 -2.77878 12.6656 -2.78499 12.6822C-2.7912 12.6994 -2.79742 12.7167 -2.80225 12.734C-2.80777 12.7526 -2.81329 12.7712 -2.81812 12.7899C-2.82364 12.8106 -2.82778 12.832 -2.83192 12.8527C-2.83675 12.8782 -2.8402 12.9037 -2.84228 12.9286C-2.84573 12.9645 -2.84642 12.9997 -2.84504 13.0342L-2.73668 15.34L-2.30878 24.4558L-1.94989 24.6428L-2.37779 15.5271L-2.48615 13.2212C-2.48753 13.1867 -2.48684 13.1508 -2.48339 13.1156C-2.48132 13.0908 -2.47787 13.0652 -2.47304 13.0397C-2.46958 13.019 -2.46475 12.9976 -2.45923 12.9769C-2.4544 12.9583 -2.44957 12.9396 -2.44336 12.921C-2.43784 12.9037 -2.43231 12.8865 -2.4261 12.8692C-2.41989 12.8527 -2.41368 12.8361 -2.40678 12.8195C-2.39988 12.8037 -2.39298 12.7871 -2.38538 12.7712C-2.37779 12.7553 -2.36951 12.7395 -2.36123 12.7236C-2.35295 12.7077 -2.34397 12.6912 -2.33431 12.676C-2.32465 12.6594 -2.3143 12.6429 -2.30394 12.627C-2.2929 12.6097 -2.28048 12.5925 -2.26875 12.5759C-2.25425 12.5566 -2.23907 12.5373 -2.22388 12.5193C-2.20318 12.4952 -2.1811 12.4717 -2.15901 12.4503C-2.11139 12.4047 -2.061 12.3654 -2.00786 12.3343L15.4499 2.25512C15.4665 2.24546 15.4838 2.23649 15.5003 2.2289C15.5252 2.21786 15.5493 2.20888 15.5728 2.20198C15.59 2.19715 15.6066 2.19371 15.6232 2.19095C15.6377 2.18888 15.6515 2.18749 15.6653 2.1868C15.6777 2.18611 15.6901 2.1868 15.7025 2.18749C15.7143 2.18818 15.7253 2.19025 15.7364 2.19232C15.7474 2.19439 15.7578 2.19714 15.7681 2.20059C15.7785 2.20404 15.7881 2.20819 15.7978 2.21302L15.4396 2.02599Z" fill="#443E49"/>
<path d="M-2.13623 24.5455L-2.56414 15.4297L-2.67249 13.1239C-2.67388 13.0894 -2.67318 13.0542 -2.66973 13.0183C-2.66766 12.9935 -2.66421 12.9679 -2.65938 12.9424C-2.65524 12.9217 -2.6511 12.9003 -2.64558 12.8796C-2.64075 12.8609 -2.63592 12.8423 -2.63039 12.8237C-2.62487 12.8064 -2.61935 12.7892 -2.61314 12.7719C-2.60693 12.7553 -2.60072 12.7388 -2.59381 12.7222C-2.58691 12.7064 -2.58001 12.6898 -2.57242 12.6739C-2.56483 12.658 -2.55724 12.6422 -2.54826 12.6263C-2.53998 12.6104 -2.53101 12.5939 -2.52135 12.5787C-2.51168 12.5621 -2.50133 12.5462 -2.49098 12.5297C-2.47925 12.5124 -2.46751 12.4951 -2.45509 12.4786C-2.4406 12.4593 -2.42541 12.4399 -2.41023 12.422C-2.38953 12.3978 -2.36813 12.3744 -2.34535 12.353C-2.29773 12.3074 -2.24735 12.2681 -2.19421 12.2377L15.2636 2.15851C15.2809 2.14885 15.2974 2.13986 15.314 2.13227C15.3388 2.12053 15.363 2.11225 15.3865 2.10535C15.4037 2.10052 15.4203 2.09707 15.4368 2.09431C15.4513 2.09224 15.4651 2.09085 15.4789 2.09016C15.4914 2.08947 15.5038 2.09017 15.5162 2.09086C15.5279 2.09155 15.539 2.09363 15.55 2.0957C15.5611 2.09777 15.5714 2.10053 15.5818 2.10398C15.5921 2.10743 15.6018 2.11157 15.6114 2.11571L15.4389 2.02599C15.4292 2.02116 15.4189 2.01771 15.4092 2.01426C15.3989 2.0108 15.3885 2.00805 15.3775 2.00598C15.3664 2.00391 15.3547 2.00182 15.3437 2.00113C15.3312 1.99975 15.3188 1.99977 15.3064 2.00046C15.2926 2.00115 15.2788 2.00252 15.2643 2.00459C15.2477 2.00735 15.2312 2.01081 15.2139 2.01565C15.1904 2.02255 15.1663 2.03152 15.1414 2.04256C15.1249 2.05015 15.1083 2.05843 15.0911 2.06879L-2.36675 12.148C-2.41989 12.1784 -2.47027 12.2177 -2.5179 12.2633C-2.53998 12.2853 -2.56207 12.3081 -2.58277 12.3323C-2.59796 12.3502 -2.61314 12.3695 -2.62763 12.3889C-2.64006 12.4054 -2.65179 12.4227 -2.66283 12.4399C-2.67318 12.4558 -2.68354 12.4724 -2.6932 12.4889C-2.70217 12.5048 -2.71114 12.5207 -2.72012 12.5366C-2.7284 12.5524 -2.73668 12.5683 -2.74427 12.5842C-2.75186 12.6001 -2.75876 12.6159 -2.76567 12.6325C-2.77257 12.6491 -2.77878 12.6656 -2.78499 12.6822C-2.7912 12.6994 -2.79742 12.7167 -2.80225 12.734C-2.80777 12.7526 -2.81329 12.7712 -2.81812 12.7899C-2.82364 12.8106 -2.82778 12.832 -2.83192 12.8527C-2.83675 12.8782 -2.8402 12.9037 -2.84228 12.9286C-2.84573 12.9645 -2.84642 12.9997 -2.84504 13.0342L-2.73668 15.34L-2.30878 24.4558L-1.94989 24.6428L-2.13623 24.5455Z" fill="#BABBBD"/>
<path d="M8.33698 36.693V36.9953C8.33629 37.027 8.31696 37.0567 8.27762 37.0795L2.39049 40.4786C2.30215 40.5296 2.14893 40.5227 2.04679 40.4641L-5.90671 35.8724C-5.96261 35.8399 -5.99091 35.7985 -5.99022 35.7599V35.4583L-5.75625 35.5728L-0.0437341 32.2745C0.0446076 32.2235 0.197825 32.2304 0.299971 32.289L8.08507 36.7841L8.06436 36.724L8.33698 36.693Z" fill="#464F70"/>
<path d="M-0.0439715 31.9749L-5.93111 35.374C-6.01876 35.4251 -6.00771 35.5134 -5.90626 35.5721L2.04724 40.1638C2.1487 40.2224 2.3026 40.2286 2.39094 40.1783L8.27808 36.7792C8.36642 36.7281 8.35538 36.6398 8.25323 36.5811L0.300423 31.9894C0.197587 31.9308 0.0436797 31.9246 -0.0439715 31.9749Z" fill="#757CA0"/>
<path d="M-5.94597 35.4044C-5.96529 35.4382 -5.92734 35.4762 -5.88869 35.4983L2.06481 40.09C2.15246 40.141 2.2905 40.1472 2.36504 40.1045L8.25217 36.7054C8.26736 36.6964 8.2784 36.6867 8.28461 36.6757C8.30393 36.6419 8.26597 36.6039 8.22733 36.5818L0.273829 31.9901C0.186178 31.9391 0.048141 31.9328 -0.0263972 31.9756L-5.91353 35.3747C-5.92872 35.3837 -5.93976 35.3941 -5.94597 35.4044Z" fill="#9297B3"/>
<path d="M0.124838 32.459L-5.28125 35.5799L1.99243 39.7796L7.39852 36.6587L0.124838 32.459Z" fill="#464F70"/>
<path d="M2.03801 39.712L7.4434 36.5911L0.296713 32.3638L-5.10938 35.4847L2.03801 39.712Z" fill="#B0C2CC"/>
<path d="M2.06354 39.4338L7.46963 36.3129L0.296713 32.3638L-5.10938 35.4847L2.06354 39.4338Z" fill="#F6F6F6"/>
<path d="M2.48509 36.3289L-0.00710662 37.7678L-0.214844 37.645L2.28564 36.2012C2.35189 36.244 2.41884 36.2861 2.48509 36.3289Z" fill="#E6E7E6"/>
<path d="M0.98414 36.4815L-0.61774 37.4063L-0.826172 37.2828L0.78813 36.3511C0.853696 36.3952 0.918574 36.4387 0.98414 36.4815Z" fill="#E6E7E6"/>
<path d="M0.951125 35.7186L-1.2864 37.0106L-1.49414 36.8878L0.761333 35.5854C0.824138 35.6296 0.88763 35.6745 0.951125 35.7186Z" fill="#E6E7E6"/>
<path d="M2.92023 34.7085L1.99402 35.2434L0.951172 34.6823L1.92638 34.1191L2.92023 34.7085Z" fill="#E6E7E6"/>
<path d="M20.2627 44.3511C20.2213 42.8348 20.3787 41.2867 20.4311 39.7766C20.438 39.5813 20.4511 39.3846 20.4511 39.1886L21.1344 37.3804L23.51 40.2094C23.51 40.2094 23.0703 44.917 22.953 45.2407C22.8239 45.5975 22.3415 45.5968 22.0275 45.6196C21.5513 45.6534 21.026 45.476 20.5995 45.2752C20.211 45.0923 20.2731 44.7272 20.2627 44.3511Z" fill="#6582EE"/>
<path d="M14.2441 46.2459C14.2441 46.9872 15.0503 47.4875 15.7252 47.7056C15.9841 47.7892 16.2601 47.7629 16.5079 47.6925C16.9089 47.5786 17.2436 47.3502 17.3375 47.2688C17.4893 47.1383 17.7295 43.1519 17.7295 43.0215C17.7295 42.9193 18.205 40.6887 18.3948 39.4616C18.4486 39.1137 18.4797 38.846 18.4694 38.7307C18.4259 38.2082 17.2043 36.9887 17.2043 36.9887L15.5575 36.3813C15.1814 37.5118 15.0282 38.1654 14.7238 40.4299C14.4174 42.695 14.2441 45.5047 14.2441 46.2459Z" fill="#6582EE"/>
<path d="M16.0892 38.462C16.1023 38.8692 16.1333 39.2771 16.0871 39.6836C16.0505 40.0107 15.9649 40.3303 15.9152 40.6554C15.829 41.2179 15.8517 41.7907 15.8511 42.3601C15.8504 43.2042 15.7993 44.0468 15.7482 44.8895C15.7179 45.3941 15.6875 45.8986 15.6564 46.4024C15.6357 46.7454 15.6481 47.0746 15.673 47.4156C15.1754 47.4804 14.666 46.6647 14.519 46.3016C14.3058 45.7743 14.3334 45.1836 14.3817 44.6169C14.5004 43.2331 14.7247 41.859 14.8048 40.4732C14.8524 39.6498 14.8344 38.7609 15.1519 37.9844C15.2506 37.7429 15.4452 37.3536 15.7655 37.4751C16.1637 37.6262 16.0774 38.0431 16.0857 38.3785C16.0878 38.4054 16.0885 38.4337 16.0892 38.462Z" fill="#6F84FC"/>
<path d="M20.668 37.4902C20.668 37.4902 20.6901 36.1396 21.256 35.3555C21.8226 34.5715 22.5846 34.898 22.5846 34.898L26.963 39.6684L24.2624 40.6919L20.668 37.4902Z" fill="#6582EE"/>
<path d="M30.8616 38.7533C30.9272 39.6898 31.2101 40.7354 30.4261 41.9115C29.6421 43.0875 27.7469 43.2835 27.6599 43.327C27.573 43.3705 25.9828 44.111 23.7612 43.8281C21.5395 43.5451 20.7334 42.6085 19.7099 41.5195C18.6864 40.4304 16.3991 38.9928 16.2466 38.7533C16.0941 38.5138 15.3314 38.2087 15.4191 37.1196C15.5061 36.0305 16.0071 35.377 16.5303 35.203C17.0527 35.0284 17.6628 35.1375 18.5124 35.486C19.362 35.8345 22.8474 37.7077 23.0648 37.8602C23.2815 38.0127 30.8616 38.7533 30.8616 38.7533Z" fill="#6582EE"/>
<path d="M23.882 41.3632C24.3589 41.671 24.9042 41.8539 25.448 42.0175C25.8456 42.1369 26.261 42.101 26.6689 42.1411C27.0616 42.1797 27.5013 42.1673 27.8919 42.0941C28.2529 42.0258 28.6076 41.8733 28.9541 41.7552C29.4137 41.5986 29.8906 41.4295 30.2295 41.0817C30.6878 40.6103 30.801 39.9063 30.8155 39.2493C29.3502 39.1029 27.8526 39.1616 26.4308 38.7786C25.771 38.6005 25.1395 38.3293 24.5315 38.0166C23.9945 37.7398 23.4307 37.4203 22.8288 37.4755C22.5721 37.499 22.1656 37.5756 22.02 37.8206C21.8778 38.0594 22.0117 38.4093 22.0786 38.6516C22.2663 39.3355 22.561 40.0015 23.0041 40.5592C23.2526 40.8711 23.5466 41.1465 23.882 41.3632Z" fill="#36231F"/>
<path d="M16.584 36.9988C16.5495 36.9684 16.5143 36.9374 16.4798 36.9056C16.3211 36.7607 15.9981 36.5502 15.9146 36.3542C15.82 36.1326 15.985 35.8075 16.1278 35.6467C16.4136 35.3258 16.9264 35.0787 17.3563 35.1678C18.845 35.4742 19.9376 36.5157 21.193 37.2721C21.2392 37.2997 21.2862 37.3287 21.3179 37.3715C21.3614 37.4302 21.3717 37.5061 21.38 37.5792C21.4546 38.2114 21.5298 38.8436 21.6043 39.4758C21.4401 39.491 21.2786 39.4372 21.1226 39.384C20.6933 39.2377 20.2626 39.0907 19.8527 38.8968C19.264 38.6186 18.8071 38.1093 18.1749 37.9153C17.562 37.7283 17.0609 37.4157 16.584 36.9988Z" fill="#6F84FC"/>
<path d="M21.6217 30.7735C21.708 32.2036 21.8308 33.744 21.7798 34.0263C21.7391 34.2457 21.7591 35.025 21.8005 35.8442C21.8488 36.8166 21.9288 37.8422 21.9758 38.0555C22.0621 38.4475 22.6942 39.6463 23.6301 40.2992C24.5674 40.9528 26.0699 41.7589 28.2487 41.3448C30.4262 40.9307 31.0142 39.4275 31.0791 39.0355C31.1447 38.6435 30.7313 35.6164 31.0791 34.5267C31.4283 33.4383 32.7576 29.4953 32.7576 28.1454C32.7576 26.7954 32.496 25.9237 31.6023 25.5745C30.7099 25.2266 28.2915 25.0962 28.2915 25.0962C28.2915 25.0962 26.0919 25.6842 25.5246 25.9237C24.9587 26.1625 22.345 27.4697 22.1269 27.6008C21.9102 27.7313 21.561 28.4069 21.561 28.4069C21.5168 28.8279 21.5603 29.7742 21.6217 30.7735Z" fill="#5E8FFF"/>
<path d="M29.3256 22.9068C29.2601 23.2664 28.9881 23.9089 29.1731 24.4645C29.3581 25.0201 29.3256 25.3797 29.3256 25.3797C29.3256 25.3797 26.8362 25.5626 26.5346 25.5909C26.233 25.6192 25.9763 25.7634 25.9763 25.7634C25.9763 25.7634 25.9935 24.6605 25.852 24.5522C25.7105 24.4431 25.2205 24.1822 25.1115 23.9641C25.0024 23.7461 24.981 20.8274 25.1115 20.3705C25.2419 19.9129 25.449 19.4229 25.449 19.4229L28.9012 20.1855L29.3256 22.9068Z" fill="#B26143"/>
<path d="M27.2903 23.7675C27.0398 23.6585 26.7348 23.343 26.7348 23.343C26.7348 23.343 26.3103 22.1884 26.0487 22.0255C25.7872 21.8619 25.7223 21.884 25.7223 21.884L25.5808 22.5155L25.2212 22.3195V21.5245L24.8616 20.7404C24.8616 20.7404 24.7201 19.5423 25.1011 18.9543C25.4821 18.3663 25.8417 18.0612 26.9308 17.8431C28.0198 17.625 28.8363 17.6147 29.4029 18.1806C29.9689 18.7472 29.9689 19.0847 29.9689 19.0847C29.9689 19.0847 30.4589 19.4222 30.6004 20.3484C30.7419 21.2739 30.5569 21.7536 30.2739 22.2761C29.991 22.7985 29.3919 23.4424 29.2718 23.5391C29.1517 23.6357 29.0758 23.7675 29.0758 23.7675C29.0758 23.7675 28.5313 23.9635 28.2048 23.9525C27.8784 23.9414 27.2903 23.7675 27.2903 23.7675Z" fill="#202020"/>
<path d="M25.7767 23.1576C25.6456 23.3074 25.5262 22.6786 25.5262 22.6786C25.5262 22.6786 25.4503 21.8725 25.5918 21.6551C25.7333 21.4377 25.8934 21.5764 25.9079 21.7641C25.9224 21.9519 25.8644 22.7766 25.8644 22.7766C25.8644 22.7766 25.8527 23.0706 25.7767 23.1576Z" fill="#CF7961"/>
<path d="M13.0366 28.8941L13.0193 29.0901C13.0193 29.0901 13.1098 29.3186 13.167 29.3269C13.2243 29.3344 13.2975 29.3268 13.3789 29.4C13.461 29.4745 14.0573 29.9722 14.0573 29.9722C14.0573 29.9722 14.5798 30.3235 14.6951 30.4546C14.8089 30.585 15.6427 32.1365 16.1327 32.659C16.6227 33.1821 17.553 34.031 17.8146 34.0807C18.0472 34.1235 20.0494 33.3319 21.1392 32.757C21.2737 32.6866 21.3938 32.6183 21.496 32.5555C21.5995 32.4913 21.028 31.7762 20.6685 31.1724C20.6685 31.1724 19.2688 30.7555 19.1943 30.7962C19.1211 30.8369 18.1487 31.5644 18.0831 31.5478C18.0175 31.5319 17.4295 31.2379 17.0699 30.8866C16.7104 30.5353 15.9512 29.5877 15.9512 29.5877C15.9512 29.5877 15.8373 29.3841 15.7393 29.2123C15.6413 29.0397 15.0933 27.7174 15.0112 27.6767C14.9297 27.6346 14.2361 27.6111 14.154 27.5994C14.0732 27.589 13.5659 27.9051 13.5659 27.9051C13.5659 27.9051 13.3624 27.961 13.3044 28.0107C13.2471 28.059 13.018 28.3296 13.018 28.3296C13.018 28.3296 12.9186 28.5359 12.9006 28.6305C12.8979 28.6408 12.8965 28.6498 12.8965 28.6567C12.8979 28.7312 13.0366 28.8941 13.0366 28.8941Z" fill="#B26143"/>
<path d="M16.1739 31.9675C16.3858 32.2954 16.6149 32.6384 16.9662 32.8088C17.0049 32.8275 17.0477 32.8447 17.0898 32.8378C17.1381 32.8302 17.1767 32.7943 17.2112 32.7591C17.4134 32.5528 17.5929 32.323 17.7433 32.0766C17.791 31.9986 17.8379 31.9144 17.8434 31.8226C17.8593 31.5824 17.6654 31.4775 17.5073 31.3443C17.3106 31.1787 17.1201 31.0061 16.9352 30.8274C16.5569 30.4609 16.205 30.0682 15.8827 29.652C15.8226 29.5747 15.7591 29.4926 15.6673 29.4567C15.6059 29.4325 15.5376 29.4325 15.4713 29.4381C15.2512 29.4581 15.0054 29.5616 14.8964 29.7659C14.7549 30.0316 14.9668 30.1144 15.1014 30.3097C15.4748 30.8501 15.8171 31.4154 16.1739 31.9675Z" fill="#CF7961"/>
<path d="M17.3406 32.9928C17.4393 33.097 17.5759 33.1585 17.716 33.1916C18.1074 33.2848 18.527 33.1695 18.8679 32.9562C19.2089 32.7423 19.4829 32.4379 19.7355 32.1246C19.8362 31.9997 19.9391 31.8596 19.9404 31.6994C19.9411 31.5566 19.8611 31.4268 19.7824 31.3074C19.6851 31.159 19.565 30.9989 19.3897 30.9748C19.2682 30.9582 19.1495 31.0113 19.037 31.0603C18.6077 31.246 18.1991 31.4917 17.7837 31.7126C17.6353 31.7912 17.4855 31.8713 17.3647 31.9879C17.0928 32.2474 17.079 32.7167 17.3406 32.9928Z" fill="#CF7961"/>
<path d="M13.0372 28.8942L13.0199 29.0902C13.0199 29.0902 13.1103 29.3187 13.1676 29.327C13.2249 29.3346 13.298 29.327 13.3795 29.4001C13.4616 29.4746 14.0579 29.9723 14.0579 29.9723C14.0579 29.9723 14.5804 30.3236 14.6956 30.4547C14.8095 30.5851 15.6432 32.1366 16.1333 32.6591C16.6233 33.1822 17.5536 34.0311 17.8152 34.0808C18.0478 34.1236 20.05 33.332 21.1397 32.7571C21.0362 32.6971 20.9244 32.6536 20.8105 32.6301C20.5427 32.5749 20.2591 32.7778 20.0092 32.8689C19.2942 33.1332 18.5792 33.3969 17.8649 33.6605C17.8097 33.6812 17.7524 33.7026 17.6937 33.6985C17.6178 33.693 17.5516 33.6474 17.4901 33.6032C17.0602 33.3016 16.624 32.9918 16.3044 32.5735C16.0049 32.1829 15.822 31.7094 15.5073 31.3291C15.1739 30.9254 14.6839 30.6093 14.5555 30.1006C14.0289 29.8853 13.5755 29.4926 13.2856 29.0012C13.2021 28.8611 13.1179 28.7003 12.9654 28.6444C12.9447 28.6382 12.9233 28.6326 12.9026 28.6299C12.8998 28.6402 12.8984 28.6492 12.8984 28.6561C12.8984 28.7313 13.0372 28.8942 13.0372 28.8942Z" fill="#7D4330"/>
<path d="M27.9113 24.7476C28.7933 24.6172 29.1743 24.4646 29.1743 24.4646L29.1315 24.29L29.3703 24.5192C29.3703 24.5192 29.5774 25.3032 29.5663 25.3798C29.5553 25.4564 28.9348 25.5979 27.9106 25.7063C26.8871 25.8153 25.9768 25.7636 25.9768 25.7636L25.5254 25.9244C25.5254 25.9244 25.5288 25.2708 25.7069 25.1072C25.885 24.9436 26.7125 24.8242 26.7125 24.8242L27.9113 24.7476Z" fill="#75A5FF"/>
<path d="M22.1274 27.6006C22.7969 27.9871 23.173 28.3632 23.3856 29.6207C23.5982 30.8789 23.516 31.6954 23.3041 31.9569C23.0916 32.2185 20.3309 33.5416 20.0859 33.5091C19.8409 33.4767 19.0403 32.1205 18.8767 31.6795C18.7131 31.2385 18.7131 30.8464 18.9091 30.667C19.1052 30.4876 21.4738 28.3308 21.4738 28.3308L22.1274 27.6006Z" fill="#75A5FF"/>
<path d="M25.9099 39.6277C26.0196 39.6056 26.0921 39.6028 26.1183 39.6021C26.1204 39.6021 26.1225 39.6014 26.1245 39.6014C26.3192 39.5925 26.4993 39.5738 26.6711 39.5511C28.0328 39.4248 29.289 39.0672 30.2911 38.4889C31.4243 37.8346 31.8516 36.9029 32.0427 35.956C32.0869 35.7358 32.7018 35.9104 32.7018 35.9104L32.7108 37.1596C32.8026 38.3826 31.7101 41.1198 30.2897 41.9425C29.2896 42.5215 28.0335 42.8894 26.6656 43.0081V43.0143L26.5276 43.0212L26.0459 43.5575C25.6842 43.5644 25.2715 43.0164 25.2715 42.661V40.1736C25.2722 39.7988 25.6531 39.667 25.9099 39.6277Z" fill="#86716D"/>
<path d="M26.238 40.1971C26.3477 40.175 26.4202 40.1723 26.4464 40.1716C26.4485 40.1716 26.4506 40.1709 26.452 40.1709C26.6466 40.1619 26.8267 40.1433 26.9986 40.1205C28.3603 39.9942 29.6164 39.6367 30.6185 39.0583C32.0147 38.2522 32.7677 37.1079 32.7007 35.9105C32.7007 35.9057 32.7028 35.9008 32.7028 35.896V39.3027C32.7946 40.5256 32.0389 41.69 30.6178 42.5119C29.6178 43.091 28.3617 43.4589 26.9937 43.5776V43.5845L26.8557 43.5914L26.2573 43.6107C25.8957 43.6176 25.5996 43.3277 25.5996 42.973V40.7437C25.6003 40.3683 25.982 40.2365 26.238 40.1971Z" fill="#6D534E"/>
</g>
<defs>
<linearGradient id="paint0_linear_803_6484" x1="26.2061" y1="32.9455" x2="25.9497" y2="32.5014" gradientUnits="userSpaceOnUse">
<stop offset="0.0405" stop-color="#CACDDD"/>
<stop offset="0.2622" stop-color="#CACDDD"/>
<stop offset="0.3212" stop-color="#D3D5E1"/>
<stop offset="0.5025" stop-color="#ECE9EC"/>
<stop offset="0.6135" stop-color="#F5F0F0"/>
<stop offset="0.6408" stop-color="#F5F0F0"/>
<stop offset="0.8676" stop-color="#F5F0F0"/>
</linearGradient>
<linearGradient id="paint1_linear_803_6484" x1="24.3739" y1="23.2227" x2="25.6319" y2="21.0434" gradientUnits="userSpaceOnUse">
<stop offset="0.1" stop-color="#CECECE"/>
<stop offset="0.3738" stop-color="#DEDEDE"/>
<stop offset="0.6459" stop-color="#EAEAEA"/>
<stop offset="1" stop-color="#FCFCFC"/>
</linearGradient>
<clipPath id="clip0_803_6484">
<rect width="37.5" height="37.5" fill="white"/>
</clipPath>
</defs>
</svg>
