<svg width="38" height="38" viewBox="0 0 38 38" fill="none" xmlns="http://www.w3.org/2000/svg">
<g clip-path="url(#clip0_803_6899)">
<rect width="37.5" height="37.5" rx="4" fill="#FEB9B8" fill-opacity="0.4"/>
<path d="M18.0723 9.46012C18.0363 8.35412 17.7553 7.26712 17.7223 6.16212C17.6923 5.16112 18.0653 4.35411 17.3963 3.47611C17.2793 3.32211 17.1383 3.17812 16.9593 3.10612C16.5113 2.92612 15.8973 2.98211 15.4093 3.22111C15.0773 3.38411 14.8043 3.63111 14.6803 3.94511C14.4763 4.4631 14.4903 5.05013 14.5393 5.59513C14.5793 6.04013 14.6393 6.48712 14.6173 6.93412C14.5983 7.32812 14.4583 7.67912 14.4703 8.06412C14.4883 8.60012 14.5113 9.13713 14.4843 9.67213C14.4573 10.2011 14.2983 10.7161 14.2793 11.2411C14.2453 12.2131 13.8643 13.0341 13.2223 13.7791C13.0093 14.0261 12.7683 14.2571 12.4763 14.4011C12.1843 14.5461 11.8343 14.5971 11.5293 14.4811C11.5803 15.2271 11.9793 15.9421 12.5883 16.3771C13.1973 16.8121 14.0023 16.9581 14.7253 16.7641C15.4233 16.5771 16.0063 16.1041 16.5383 15.6151C16.7923 15.3821 17.0443 15.1371 17.2153 14.8371C17.8293 13.7621 17.5683 12.2321 17.7903 11.0501C17.8053 10.9761 18.1313 9.45412 18.0723 9.46012Z" fill="#36231F"/>
<path d="M25.2356 26.5549C25.2756 27.0569 25.2996 27.4199 25.2946 27.5089C25.2736 27.8689 26.6146 35.1629 26.6146 35.1629C26.6146 35.1629 27.2146 39.0509 27.2586 39.5579C27.2796 39.8079 27.3476 40.0029 27.4176 40.1639C27.4916 40.3249 27.5696 40.4519 27.6056 40.5669C27.6166 40.6049 27.6266 40.6669 27.6326 40.7509C27.6586 41.1749 27.6096 42.0839 27.5866 42.2469C27.5596 42.4419 27.0446 43.6159 27.0446 43.6159C27.0446 43.6159 27.2756 43.7809 27.4256 43.7299C27.5756 43.6789 28.0636 43.3629 28.0636 43.3629L28.0166 43.5829L27.9106 44.0219C27.9106 44.0219 27.9276 44.0859 27.9636 44.1539C28.0056 44.2339 28.0716 44.3129 28.1666 44.3039C28.3426 44.2849 29.9356 42.4939 29.9356 42.4939C29.9356 42.4939 29.9396 41.2199 29.8866 40.8769C29.8336 40.5319 29.3016 39.2879 29.1086 38.6749C28.9156 38.0619 28.7566 36.9049 28.6106 35.7779C28.4626 34.6509 28.1526 32.2089 28.0196 30.3339C27.8866 28.4589 27.7036 27.4949 27.4436 26.9989C27.1836 26.5029 27.2696 25.0579 27.0576 23.4369C26.8436 21.8179 26.3856 20.1779 26.3606 20.0849L25.3246 19.8159L24.8496 22.1769C24.8476 22.1769 25.1146 25.0119 25.2356 26.5549Z" fill="#C56F53"/>
<path d="M25.2934 27.5099C25.2724 27.8699 26.6134 35.1639 26.6134 35.1639C26.6134 35.1639 27.2134 39.0519 27.2574 39.5589C27.2784 39.8089 27.3464 40.0039 27.4164 40.1649C27.5564 40.1419 27.6944 40.0679 27.8144 39.9889C27.9204 39.9149 28.0284 39.8299 28.0714 39.7069C28.1054 39.6139 28.0984 39.5099 28.0884 39.4099C27.9184 37.5809 27.7474 35.7499 27.5144 33.9259C27.4634 33.5379 27.4144 33.1759 27.3004 32.8029C27.1884 32.4319 27.2344 32.0379 27.1094 31.6649C26.9864 31.2899 26.9594 30.9619 27.0244 30.5629C27.0794 30.2179 27.1964 29.8449 27.0374 29.5349C26.9184 29.3019 26.6724 29.1639 26.4994 28.9689C26.4574 28.9199 26.4194 28.8669 26.4084 28.8039C26.3994 28.7489 26.4104 28.6939 26.4234 28.6409C26.5594 28.0429 26.6944 27.4419 26.8304 26.8439C26.9114 26.4899 27.3584 25.5049 26.6544 25.6419C26.0864 25.7519 25.5734 26.0909 25.2344 26.5569C25.2744 27.0569 25.2994 27.4209 25.2934 27.5099Z" fill="#7D4330"/>
<path d="M17.8867 61.9569C17.8847 62.5269 18.0627 65.4379 18.1287 65.7489C18.1747 65.9709 18.4397 66.2509 18.9887 66.4419C19.2067 66.5179 19.4677 66.5799 19.7787 66.6179C20.8737 66.7519 22.0527 66.2129 22.2067 65.8779C22.3617 65.5449 23.6987 54.6589 23.8387 54.1989C23.9787 53.7389 26.4537 45.8199 27.1277 42.3829C27.8017 38.9439 27.4817 35.9939 27.1297 34.5089C27.1297 34.5089 20.3167 33.4389 19.4547 34.8649C19.1257 35.4099 18.9847 37.3609 18.9377 39.5609C18.8617 43.1149 19.0287 47.3249 19.0287 47.3249C19.0287 47.3249 17.8887 61.3849 17.8867 61.9569Z" fill="#6582EE"/>
<path d="M23.2378 37.2483C23.0238 40.5413 22.3148 43.6663 21.8688 43.9363C21.4228 44.2063 18.9898 55.1373 18.8708 56.3883C18.7528 57.6393 17.3098 68.7253 17.0818 69.2583C16.8538 69.7913 15.2638 70.3443 14.4518 70.1783C13.6398 70.0123 13.1808 69.8723 13.1258 69.3693C13.0718 68.8673 12.5238 57.8693 12.8978 56.0513C13.2718 54.2333 13.5598 50.7413 13.5058 49.9533C13.4518 49.1653 12.6108 44.3363 12.5388 42.2173C12.4678 40.0983 13.0918 35.9033 13.0918 35.9033L23.2378 37.2483Z" fill="#6582EE"/>
<path d="M23.043 15.0249C24.274 15.0569 25.81 15.8619 26.184 16.5359C26.559 17.2099 27.273 19.4459 27.289 20.0309C27.305 20.6169 26.078 21.6389 25.208 21.7959C24.339 21.9539 23.178 17.9849 23.178 17.9849L23.043 15.0249Z" fill="#75A5FF"/>
<path d="M12.965 36.8152C12.965 36.8152 14.927 38.7852 18.141 38.5632C21.355 38.3412 24.677 37.3242 26.018 36.5532C27.359 35.7822 27.289 35.1393 27.235 34.6373C27.181 34.1353 26.126 30.2362 26.237 29.2082C26.348 28.1802 26.693 25.3612 26.588 22.9282C26.483 20.4952 24.076 15.7293 23.484 15.2533C22.893 14.7783 20.114 14.2862 18.411 14.4072C16.707 14.5282 14.998 15.1582 13.43 16.2172C11.862 17.2762 11.03 17.8422 11.091 19.5502C11.152 21.2582 11.895 31.9072 11.895 31.9072L12.965 36.8152Z" fill="#5E8FFF"/>
<path d="M16.3703 15.1259C16.3983 15.2999 16.4493 15.4709 16.5363 15.6249C16.6493 15.8239 16.8153 15.9859 16.9853 16.1399C17.1633 16.3019 17.3473 16.4579 17.5363 16.6079C17.7093 16.7459 17.9003 16.9269 18.1053 17.0079C18.5383 17.1789 19.0813 17.2469 19.5443 17.2689C20.4283 17.3109 21.0933 17.1929 21.5103 17.0149C21.7623 16.9109 21.9233 16.7819 21.9873 16.6549C22.1563 16.3179 21.8853 15.7119 21.7473 15.0299C21.6093 14.3459 21.8973 14.0599 22.0613 13.1059L21.7663 11.6419L21.6493 11.0549C21.6493 11.0549 16.9853 9.32386 16.9763 9.53086C16.9673 9.73886 17.2433 11.2479 17.3003 12.2109C17.3573 13.1729 16.8993 13.9209 16.6203 14.2839C16.5543 14.3699 16.4253 14.4259 16.3703 14.5119C16.3163 14.5959 16.3413 14.7319 16.3443 14.8309C16.3463 14.9299 16.3553 15.0279 16.3703 15.1259Z" fill="#C56F53"/>
<path d="M18.5476 12.7761C18.6496 13.0171 18.8756 13.2211 19.0686 13.3881C19.5856 13.8311 20.2196 14.1041 20.7896 14.4641C20.8976 14.5321 21.0056 14.6061 21.0736 14.7141C21.1436 14.8221 21.1666 14.9551 21.1896 15.0831C21.2916 15.7001 21.3936 16.3201 21.4966 16.9371C21.5006 16.9631 21.5066 16.9901 21.5096 17.0171C21.7616 16.9131 21.9226 16.7841 21.9866 16.6571C22.1556 16.3201 21.8846 15.7141 21.7466 15.0321C21.6086 14.3481 21.8966 14.0621 22.0606 13.1081L21.7656 11.6441C21.7376 11.6401 21.7106 11.6361 21.6826 11.6331C20.6586 11.4891 19.6096 11.5291 18.5976 11.7491C18.5386 11.7601 18.4746 11.7771 18.4386 11.8271C18.3076 11.9991 18.4666 12.5821 18.5476 12.7761Z" fill="#7D4330"/>
<path d="M21.8896 16.3109C21.8896 16.3109 21.9826 18.005 21.0946 18.305C20.2066 18.605 18.2246 16.664 18.2246 16.664C18.2246 16.664 19.8126 17.122 20.6176 16.901C21.4226 16.68 21.5806 15.939 21.5806 15.939L21.8896 16.3109Z" fill="#FAFAFA"/>
<path d="M19.5518 16.565L20.2328 16.669L21.1918 18.368H20.6718L19.9678 18.132L19.3278 17.682L18.5488 16.311L19.5518 16.565Z" fill="#5488FF"/>
<path d="M17.1326 13.3413C17.1326 13.3413 16.6736 13.3283 16.6646 13.3963C16.6556 13.4643 15.6396 14.8463 15.7416 15.1023C16.2506 16.3803 19.1376 18.2763 19.1916 18.2773C19.2456 18.2783 20.2326 16.6693 20.2326 16.6693C20.2326 16.6693 18.1546 15.5533 17.3326 14.8683C16.5106 14.1833 16.8386 14.0813 16.8836 13.9783C16.9626 13.7973 17.1326 13.3413 17.1326 13.3413Z" fill="#75A5FF"/>
<path d="M21.2736 18.2331C21.2676 18.1861 21.4666 16.3791 21.4666 16.3791L21.7016 16.0991C21.7016 16.0991 22.0176 16.7371 21.9246 16.8771C21.8316 17.0161 21.8586 17.7911 21.2736 18.2331Z" fill="#5488FF"/>
<path d="M21.4675 16.3801C21.4615 16.4041 21.4385 14.8981 21.7735 14.2881C22.0605 14.6701 22.2725 15.0791 22.2935 15.2481C22.3155 15.4171 22.3365 16.9571 22.2635 17.3801C22.1905 17.8031 22.1665 18.0601 22.1665 18.0601L21.7795 16.7091L21.4675 16.3801Z" fill="#75A5FF"/>
<path d="M17.4698 8.20788C17.4698 8.20788 17.8148 12.1539 18.1688 12.6389C18.5228 13.1259 21.5758 14.1899 21.9578 14.2129C22.1928 14.2259 22.5198 14.2429 22.8038 14.1659C22.9858 14.1169 23.1488 14.0279 23.2548 13.8759C23.5318 13.4879 24.2588 11.7099 24.2168 10.8879C24.1848 10.2629 24.3078 9.11188 24.3248 8.33288C24.3318 8.08888 24.3268 7.87991 24.3038 7.73691C24.2048 7.12691 24.0368 6.01988 23.0668 5.40988C22.0958 4.80188 20.6578 4.4349 19.1568 5.0729C17.6558 5.7119 16.4318 6.65288 17.4698 8.20788Z" fill="#C56F53"/>
<path d="M17.2183 10.8389C17.2183 10.8389 17.4843 11.5019 17.8513 11.7499C18.2183 11.9989 19.3013 12.6079 19.3013 12.6079L19.1293 12.7499C19.1293 12.7499 18.2043 12.2489 17.7273 11.8499C17.2503 11.4519 17.0293 10.8679 17.0293 10.8679L17.2183 10.8389Z" fill="#EEEEEE"/>
<path d="M19.3073 6.75496C18.9043 7.71896 18.8303 8.64798 18.7423 9.00698C18.6543 9.36598 18.3663 10.222 18.3663 10.222L18.3383 11.13L17.7353 9.81496C17.7353 9.81496 17.1743 9.57498 16.9793 9.62798C16.7843 9.68098 17.1813 11.099 17.1813 11.099L17.3883 12.171L16.8313 11.866C16.8313 11.866 16.4813 10.983 16.2643 10.88C16.0463 10.777 15.2743 10.384 14.9073 8.75799C14.5403 7.13099 14.6853 6.41697 15.2033 5.48797C15.3413 3.83797 17.1643 3.22796 18.9643 3.14296C20.7643 3.05896 22.0493 3.63299 22.7393 4.28899C23.4293 4.94399 23.8563 5.51699 24.0283 5.78399C24.2003 6.05099 24.3373 7.06997 24.2333 7.33397C23.7843 6.31797 23.1183 6.02498 23.1183 6.02498C23.1183 6.02498 22.2103 6.13998 21.8443 6.13198C21.4763 6.12198 19.7103 5.78996 19.3073 6.75496Z" fill="#36231F"/>
<path d="M19.4854 10.804C18.7564 10.484 17.5254 9.38401 17.0164 9.43101C16.5074 9.47801 16.6964 9.206 16.6964 9.206C16.6964 9.206 16.9274 9.02798 17.5844 9.38898C18.2414 9.74998 18.9474 10.294 19.4854 10.555C19.6264 10.68 19.4854 10.804 19.4854 10.804Z" fill="#EEEEEE"/>
<path d="M17.6193 11.081C17.5783 11.359 16.9753 11.294 16.5473 10.42C16.1193 9.54597 16.1473 9.36798 16.4683 9.11098C16.7893 8.85398 17.1473 9.29596 17.2553 9.48796C17.3633 9.67996 17.6743 10.71 17.6193 11.081Z" fill="#CF7961"/>
<path d="M22.8047 14.166C22.9867 14.117 23.1497 14.028 23.2557 13.876C23.5327 13.488 24.2597 11.71 24.2177 10.888C24.1857 10.263 24.3087 9.11201 24.3257 8.33301C24.1377 8.44301 23.9507 8.54901 23.7627 8.65701C23.5397 8.78601 23.2987 8.93501 23.2197 9.18201C23.1567 9.37901 23.2157 9.59302 23.2837 9.78802C23.4277 10.216 23.6097 10.633 23.8247 11.028C23.8567 11.085 23.8887 11.144 23.8907 11.208C23.9007 11.467 23.4967 11.507 23.3507 11.721C23.2277 11.905 23.3297 12.155 23.2897 12.372C23.2597 12.535 23.1477 12.682 23.1587 12.847C23.1667 12.934 23.2057 13.014 23.2217 13.101C23.2467 13.262 23.1777 13.419 23.1097 13.567C23.0397 13.724 22.8917 13.948 22.8047 14.166Z" fill="#7D4330"/>
<path d="M17.7642 25.4L20.4912 24.743C20.6322 24.709 20.7282 24.53 20.7032 24.346L20.4412 22.368C20.4172 22.184 20.2812 22.06 20.1402 22.094L17.4132 22.751C17.2722 22.785 17.1762 22.964 17.2012 23.148L17.4632 25.126C17.4882 25.311 17.6232 25.434 17.7642 25.4Z" fill="#FAFAFA"/>
<path d="M19.1277 24.6452L20.3177 24.3583C20.3827 24.3423 20.4267 24.2602 20.4157 24.1752L20.2187 22.6892C20.2077 22.6042 20.1447 22.5472 20.0807 22.5632L18.8907 22.8502C18.8257 22.8662 18.7817 22.9482 18.7927 23.0332L18.9897 24.5192C18.9997 24.6042 19.0627 24.6612 19.1277 24.6452Z" fill="#EEEEEE"/>
<path d="M17.5874 23.4318L18.4944 23.2128C18.5494 23.1998 18.5864 23.1308 18.5764 23.0588C18.5674 22.9878 18.5144 22.9398 18.4594 22.9528L17.5524 23.1718C17.4974 23.1848 17.4604 23.2538 17.4704 23.3258C17.4804 23.3978 17.5334 23.4458 17.5874 23.4318Z" fill="#EEEEEE"/>
<path d="M17.646 23.8679L18.553 23.6489C18.608 23.6359 18.645 23.5669 18.635 23.4949C18.626 23.4229 18.573 23.3759 18.518 23.3889L17.611 23.6079C17.556 23.6209 17.519 23.6899 17.529 23.7619C17.539 23.8339 17.591 23.8809 17.646 23.8679Z" fill="#EEEEEE"/>
<path d="M25.3438 20.6451L25.1668 19.8521L24.7168 19.9601L25.0818 21.5941L25.3438 20.6451Z" fill="#FAFAFA"/>
<path d="M24.7461 20.8159L24.5691 20.0229L24.1191 20.131L24.4841 21.765L24.7461 20.8159Z" fill="#E73F38"/>
<path d="M25.7521 20.3481C25.7831 20.4541 26.3061 22.9811 26.3061 22.9811L24.8551 24.3001L23.2081 23.7542L22.6641 21.2021L25.7521 20.3481Z" fill="#75A5FF"/>
<path d="M25.4081 26.1284L25.8241 25.1284L22.3301 25.9324L22.6331 26.7604L25.4081 26.1284Z" fill="#B8B8B8"/>
<path d="M20.5275 26.6653L28.1896 24.9023L28.3805 25.0974L18.5015 36.6093L18.3105 36.4134L20.5275 26.6653Z" fill="#6B505C"/>
<path d="M20.719 26.8602L28.381 25.0972L25.726 34.8442L18.502 36.6092L20.719 26.8602Z" fill="#4C3D40"/>
<path d="M25.7792 26.5996L26.1952 25.6006L22.7012 26.4046L23.0042 27.2326L25.7792 26.5996Z" fill="#B8B8B8"/>
<path d="M22.7001 26.4041L22.3301 25.9321V25.8291L26.1941 25.4961V25.6001L22.7001 26.4041Z" fill="#B8B8B8"/>
<path d="M22.7001 26.3003L22.3301 25.8293L25.8091 25.0283L26.1941 25.4963L22.7001 26.3003Z" fill="#E6E6E6"/>
<path d="M9.19067 30.4601C9.71067 31.6961 12.1457 30.0211 12.3257 29.6461C12.3767 29.5401 12.4397 29.3011 12.5137 28.9881C12.7007 28.1951 12.9577 26.9271 13.2637 26.1841C13.6907 25.1461 14.0537 23.4261 13.9497 22.8171L13.0067 21.5691L12.9747 21.5281C12.9747 21.5281 10.3497 21.1531 10.0867 21.6531C9.82467 22.1531 9.31667 25.3851 9.34667 25.9761C9.37767 26.5681 8.67267 29.2241 9.19067 30.4601Z" fill="url(#paint0_linear_803_6899)"/>
<path d="M10.5918 29.217C11.2078 29.006 11.8658 28.928 12.5118 28.988C12.6988 28.195 12.9558 26.9271 13.2618 26.1841C13.6888 25.1461 14.0518 23.426 13.9478 22.817L13.0048 21.5691C12.5368 21.5101 12.0698 21.4691 11.6018 21.4251C11.4678 21.4131 11.3218 21.4031 11.2088 21.4731C11.0938 21.5431 11.0318 21.6801 11.0218 21.8141C10.9638 22.5061 11.7208 22.9341 12.2458 23.2181C12.6908 23.4581 13.1558 23.659 13.5708 23.945C13.5908 23.96 13.6138 23.9751 13.6248 23.9991C13.6408 24.0321 13.6318 24.0731 13.6238 24.1081C13.4498 24.7991 13.2708 25.489 13.1068 26.183C13.0408 26.454 12.9188 26.6631 12.8058 26.9181C12.6838 27.1971 12.5778 27.489 12.3988 27.739C12.1198 28.136 11.6938 28.3981 11.2708 28.6331C11.0038 28.7821 10.7188 28.941 10.5918 29.217Z" fill="#7D4330"/>
<path d="M9.14621 30.5441C9.18821 30.7301 9.26121 30.9441 9.38121 31.1081C9.65321 31.4761 11.3122 32.2011 13.3002 32.4811C15.2872 32.7611 17.6652 32.7781 17.8982 32.7201C17.9762 32.7011 18.1292 32.7291 18.2992 32.7741C18.3462 32.7891 18.3952 32.8011 18.4422 32.8161C18.5752 32.8591 18.7112 32.9051 18.8252 32.9461C18.9672 32.9971 19.0752 33.0391 19.1062 33.0471C19.2042 33.0741 20.2842 33.0801 20.5122 32.9761C20.7402 32.8731 22.4372 31.6931 22.6022 31.4171C22.6972 31.2561 22.6452 31.0951 22.5832 30.9911C22.5402 30.9151 22.4922 30.8681 22.4922 30.8681C22.4922 30.8681 23.2402 30.2171 23.3122 30.0901C23.3512 30.0221 23.3522 29.8491 23.3452 29.7081C23.3382 29.5961 23.3282 29.5061 23.3282 29.5061C23.3282 29.5061 23.5452 29.1421 23.4662 28.9461C23.4212 28.8301 23.2552 28.8611 23.1332 28.8861C23.1332 28.8861 23.1312 28.8861 23.1292 28.8861C23.0472 28.9031 22.9862 28.9181 22.9982 28.8831C23.0042 28.8651 23.0032 28.8331 22.9962 28.7961C22.9742 28.6571 22.8712 28.4311 22.6962 28.4471C22.4722 28.4681 21.7912 28.6741 21.7002 28.7181C21.6092 28.7631 20.2002 29.2151 20.2002 29.2151L20.1522 28.9461C20.1522 28.9461 19.4222 29.0251 19.3572 29.0881C19.2912 29.1511 18.0262 30.3791 17.8622 30.3941C17.6962 30.4091 16.2672 30.1141 14.9622 29.8781C13.6572 29.6431 12.7592 28.6811 12.6062 28.5831C12.4542 28.4871 10.3692 28.8071 9.82721 29.3561L9.08621 30.1191C9.08421 30.1181 9.09221 30.3091 9.14621 30.5441Z" fill="url(#paint1_linear_803_6899)"/>
<path d="M18.4884 32.8294C18.4724 32.8254 18.4574 32.8214 18.4414 32.8164C18.5744 32.8594 18.7104 32.9054 18.8244 32.9464C18.7154 32.8994 18.6004 32.8624 18.4884 32.8294Z" fill="#F2CBBC"/>
<path d="M9.14648 30.5444C9.18848 30.7304 9.26148 30.9445 9.38148 31.1085C9.65349 31.4765 11.3125 32.2014 13.3005 32.4814C15.2875 32.7614 17.6655 32.7785 17.8985 32.7205C17.9765 32.7015 18.1295 32.7294 18.2995 32.7744C18.0475 32.7064 17.7925 32.6444 17.5355 32.5964C17.2435 32.5394 16.9855 32.5735 16.6905 32.5685C16.2635 32.5625 15.8385 32.5504 15.4115 32.5364C15.0685 32.5264 14.7515 32.4365 14.4155 32.4174C14.0965 32.4014 13.7785 32.3604 13.4635 32.3024C13.1425 32.2424 12.8215 32.1225 12.4975 32.0825C12.0625 32.0275 11.6345 31.9214 11.2245 31.7644C10.8425 31.6194 10.3565 31.4944 10.0305 31.2514C9.74649 31.0384 9.46549 30.8224 9.19749 30.5924C9.18049 30.5794 9.16348 30.5634 9.14648 30.5444Z" fill="#7D4330"/>
<path d="M21.0723 30.8423L23.3463 29.7093C23.3393 29.5973 23.3293 29.5073 23.3293 29.5073L21.2633 30.7293L21.0723 30.8423Z" fill="#7D4330"/>
<path d="M22.4935 30.8682L20.9785 31.8802L21.4385 31.7122L22.5845 30.9922C22.5415 30.9152 22.4935 30.8682 22.4935 30.8682Z" fill="#7D4330"/>
<path d="M22.0175 29.4064C22.0175 29.4064 22.7895 29.0574 23.1315 28.8864C23.0495 28.9034 22.9885 28.9184 23.0005 28.8834C23.0065 28.8654 23.0055 28.8334 22.9985 28.7964C22.8965 28.8614 22.8275 28.9034 22.8275 28.9034L20.5925 29.9244L20.4805 30.0884L22.0175 29.4064Z" fill="#7D4330"/>
<path d="M11.7776 28.8942C12.0576 28.9262 12.3206 29.0442 12.5746 29.1682C13.4876 29.6112 14.3786 30.1472 15.3776 30.3272C15.7886 30.4012 16.2136 30.4142 16.6076 30.5532C16.7096 30.5892 16.8096 30.6342 16.8876 30.7082C17.0376 30.8522 17.0726 31.0752 17.1006 31.2802C17.1246 31.4602 17.1366 31.6722 16.9986 31.7902C16.9216 31.8562 16.8146 31.8742 16.7126 31.8832C16.3996 31.9112 16.1026 31.8622 15.7926 31.8402C15.5686 31.8242 15.3536 31.8752 15.1306 31.8582C14.4296 31.8042 13.7146 31.6142 13.0226 31.4942C12.1946 31.3502 11.3626 31.2042 10.5676 30.9322C10.3896 30.8712 10.2086 30.8012 10.0706 30.6732C9.83361 30.4532 9.70961 29.8602 9.92761 29.6032C10.3056 29.1572 11.2116 28.8282 11.7776 28.8942Z" fill="#CF7961"/>
<path d="M11.7678 23.5264C11.8498 23.5734 11.9328 23.6214 11.9938 23.6924C12.1718 23.9004 12.1058 24.2114 12.0668 24.4824C11.9968 24.9594 12.0388 25.4564 11.8878 25.9144C11.7968 26.1914 11.6378 26.4414 11.4818 26.6884C11.1478 27.2134 10.8108 27.7414 10.3998 28.2104C10.1948 28.4444 9.96876 28.6814 9.71576 28.8644C9.49476 29.0244 9.26576 28.9994 9.41476 28.6634C9.63176 28.1734 9.66276 27.6234 9.68976 27.0874C9.73776 26.1154 9.77976 25.1444 9.81576 24.1724C9.82876 23.8244 9.71876 23.1464 9.91276 22.8564C10.1038 22.5714 10.3938 22.7674 10.6228 22.8904C11.0068 23.0974 11.3878 23.3104 11.7678 23.5264Z" fill="#CF7961"/>
<path d="M10.9675 22.6892C11.7035 23.1912 14.1745 24.1982 14.2465 24.2152C14.3195 24.2322 14.9485 22.5572 14.8565 21.5672C14.7645 20.5772 14.2105 18.7032 13.2985 17.8372C12.3865 16.9712 11.5705 17.6642 11.3575 17.9222C11.1435 18.1802 9.72146 22.0672 9.73446 22.2092C9.74746 22.3502 10.9675 22.6892 10.9675 22.6892Z" fill="#75A5FF"/>
<path d="M23.3865 10.6161C23.9115 10.5901 24.1335 10.6391 24.2155 10.8041C24.2965 10.9691 24.3565 10.9341 24.1425 11.8211C23.9295 12.7091 23.4325 13.9991 23.1485 14.1651C22.8645 14.3301 22.1775 14.3381 21.8225 14.2811C21.4675 14.2241 19.0865 13.4461 18.8865 13.1011C18.6865 12.7561 19.2465 10.8281 19.3645 10.4261C19.4825 10.0241 20.3885 10.7331 21.4655 10.8271C22.5435 10.9221 22.9355 10.6381 23.3865 10.6161Z" fill="#EEEEEE"/>
</g>
<defs>
<linearGradient id="paint0_linear_803_6899" x1="14.0028" y1="24.8514" x2="9.00024" y2="24.929" gradientUnits="userSpaceOnUse">
<stop offset="0.0495" stop-color="#C26C4E"/>
<stop offset="1" stop-color="#CF7961"/>
</linearGradient>
<linearGradient id="paint1_linear_803_6899" x1="23.5855" y1="30.1247" x2="9.20669" y2="31.4575" gradientUnits="userSpaceOnUse">
<stop offset="0.0495" stop-color="#C26C4E"/>
<stop offset="1" stop-color="#CF7961"/>
</linearGradient>
<clipPath id="clip0_803_6899">
<rect width="37.5" height="37.5" fill="white"/>
</clipPath>
</defs>
</svg>
