<svg width="38" height="38" viewBox="0 0 38 38" fill="none" xmlns="http://www.w3.org/2000/svg">
<g clip-path="url(#clip0_803_6972)">
<rect width="37.5" height="37.5" rx="4" fill="white"/>
<rect width="37.5" height="37.5" rx="4" fill="#355CE1" fill-opacity="0.3"/>
<path d="M24.5487 30.6117L25.3779 35.4608L25.0155 38.4223L25.3155 42.9797L25.3708 43.7321C25.3708 43.7321 25.3595 43.9143 25.4393 44.0596V44.0617C25.5028 44.1764 25.6226 44.2675 25.8478 44.2286C26.3606 44.1405 27.5768 41.5486 27.7129 41.2671C27.8491 40.9856 27.6443 38.0712 27.4989 37.2113C27.3505 36.3514 27.4027 29.6075 27.1765 27.9993C26.9503 26.3911 26.551 25.2057 26.3299 24.7758C26.1108 24.3469 26.0126 23.0601 25.902 22.2678L24.2181 21.7109C24.2181 21.7109 24.0553 22.0221 23.8516 22.4398C23.6121 22.9342 23.3101 23.5802 23.1412 24.0449C22.83 24.9068 24.5487 30.6117 24.5487 30.6117Z" fill="#B26143"/>
<path d="M24.5491 30.6122L25.3783 35.4613L25.0159 38.4228L25.3158 42.9802L25.3711 43.7326C25.3711 43.7326 25.3598 43.9148 25.4397 44.0601L26.276 42.5594L26.6384 41.588C26.6384 41.588 26.7623 40.8038 26.3856 40.1067C26.0078 39.4086 25.9485 37.5486 25.9485 37.5486C25.9485 37.5486 25.6782 34.8922 25.713 33.3628C25.7447 31.8334 24.5614 26.627 24.5614 26.627C24.5614 26.627 24.975 24.5889 25.0046 23.9072L24.72 22.2427L23.854 22.4413C23.6145 22.9357 23.3125 23.5816 23.1436 24.0464C22.8304 24.9073 24.5491 30.6122 24.5491 30.6122Z" fill="#7D4330"/>
<path d="M26.2145 42.2009C26.0507 42.463 25.6371 42.6718 25.4395 42.2715C25.242 41.8723 25.4907 40.345 25.4907 40.345C25.4907 40.345 25.415 38.3918 25.5133 38.1042C25.6115 37.8165 26.0281 37.4511 26.2196 37.3446C26.41 37.2381 26.9402 37.6763 27.0897 38.2649C27.2402 38.8535 27.1951 39.2425 27.1091 39.5271C27.0232 39.8127 26.5748 40.2088 26.5748 40.2088C26.5748 40.2088 26.4427 41.4116 26.4079 41.4792L26.2145 42.2009Z" fill="#C26C4E"/>
<path d="M25.7377 30.2912C25.579 29.7231 25.0918 26.5128 25.0918 26.5128L25.6927 25.353L26.7184 26.7503L27.1791 37.635L26.3734 37.3443L25.7377 30.2912Z" fill="#C26C4E"/>
<path d="M16.9434 34.7558C16.9434 34.7558 17.5166 38.1134 18.0561 41.2244C18.4451 43.4713 18.8156 45.5893 18.9364 46.2147C19.2231 47.7052 19.5844 53.839 19.5844 53.839L19.524 57.126C19.524 57.126 19.6059 64.6521 19.6888 66.6277C19.6991 66.8857 19.7103 67.0474 19.7216 67.0884C19.8137 67.4344 20.9193 67.7691 21.4823 67.8039C22.0453 67.8397 23.806 67.4068 24.0128 66.8806C24.2165 66.3544 24.6536 55.4943 24.8471 54.315C25.0375 53.1358 26.0079 41.1711 25.6527 37.5596C25.2955 33.9502 24.6628 32.5508 24.3312 31.7544L16.9434 34.7558Z" fill="#4079FF"/>
<path d="M25.4051 37.6085C25.0734 37.6187 24.7448 37.4836 24.5114 37.2963C24.1552 37.0107 23.9392 36.594 23.7754 36.2255L24.1296 36.0679C24.2821 36.4108 24.4633 36.7599 24.754 36.9943C24.9885 37.1816 25.3774 37.3096 25.6784 37.1458L25.8637 37.4867C25.7163 37.5665 25.5607 37.6034 25.4051 37.6085Z" fill="#6696FF"/>
<path d="M20.815 35.7333C20.9992 36.6198 21.4435 41.1321 21.3616 41.8015C21.2797 42.471 20.6676 43.4937 20.6676 43.4937L19.7053 44.5757L17.8187 59.2213C17.8187 59.2213 15.8164 70.5114 15.5103 70.8256C15.2032 71.1399 13.9902 71.9046 12.6625 71.8043C11.3338 71.704 11.0625 70.3077 11.0625 70.3077L11.2846 63.747L12.3544 55.4358L12.3308 53.7682C12.3308 53.7682 11.3082 42.9962 11.2109 40.3244C11.1147 37.6536 11.2293 34.684 11.4566 34.2848C11.6828 33.8866 20.815 35.7333 20.815 35.7333Z" fill="#4079FF"/>
<path d="M11.4823 70.8916L11.0944 70.8987C11.0309 67.5882 11.6512 63.0635 12.0617 60.0703C12.2562 58.6546 12.4088 57.5367 12.3944 57.2092C12.3852 57.0024 12.3781 56.5858 12.3678 56.0084C12.3258 53.6059 12.2388 48.6052 11.7771 44.2157C11.34 40.0617 11.5949 38.6091 11.7311 37.8301C11.7731 37.5895 11.8038 37.4155 11.7966 37.2518L12.1835 37.2354C12.1927 37.4401 12.159 37.6315 12.1119 37.8966C11.9778 38.6582 11.73 40.075 12.161 44.1758C12.6247 48.5827 12.7118 53.5936 12.7537 56.0023C12.764 56.5755 12.7711 56.9901 12.7803 57.1918C12.7967 57.5552 12.6493 58.6321 12.4446 60.1236C12.0372 63.1045 11.4199 67.6107 11.4823 70.8916Z" fill="#6696FF"/>
<path d="M25.3398 35.2388C25.3398 35.2388 24.1728 37.3321 21.1243 38.2094C18.0769 39.0857 15.2853 38.4817 13.6649 38.2012C12.0434 37.9218 11.1855 37.3332 11.1855 37.3332L11.2562 35.6134C11.2562 35.6134 14.0539 37.2165 18.6686 36.9851C21.4662 36.6709 22.1183 36.289 23.0007 35.7813C23.8831 35.2736 25.0593 33.9019 25.0593 33.9019L25.3398 35.2388Z" fill="#70524B"/>
<path d="M19.3782 38.9224C19.1939 38.7883 19.0833 38.5518 19.0741 38.2744L19.0475 37.4606C19.0322 36.9979 19.2942 36.571 19.6576 36.4666L21.274 36.0029C21.4531 35.9507 21.6323 35.9834 21.7817 36.0909C21.967 36.225 22.0776 36.4625 22.0858 36.7399L22.1124 37.5548C22.1277 38.0185 21.8647 38.4454 21.5013 38.5487L19.8849 39.0135C19.8357 39.0278 19.7866 39.035 19.7375 39.037C19.6095 39.0401 19.4846 39.0012 19.3782 38.9224ZM19.8214 37.0337C19.7539 37.0542 19.631 37.2231 19.6382 37.4411L19.6648 38.2549C19.6689 38.3757 19.7129 38.4371 19.7221 38.4433L21.3395 37.9786C21.4081 37.9601 21.5289 37.7902 21.5217 37.5732L21.4951 36.7594C21.491 36.6386 21.447 36.5782 21.4378 36.571L19.8214 37.0337Z" fill="#E6E6E6"/>
<path d="M23.7235 37.4265C23.6345 36.8102 23.5218 36.1899 23.3918 35.5818C23.3468 35.3709 23.3008 35.1867 23.1953 35.0526L23.4993 34.812C23.6693 35.027 23.7286 35.3003 23.7716 35.4999C23.9037 36.1172 24.0173 36.7457 24.1084 37.3702L23.7235 37.4265Z" fill="#4079FF"/>
<path d="M17.544 39.402L17.1602 39.3508C17.285 38.4151 17.3127 37.4631 17.2431 36.5214L17.63 36.4927C17.7006 37.4611 17.672 38.4397 17.544 39.402Z" fill="#4079FF"/>
<path d="M11.5032 37.8532L11.1152 37.848C11.1255 37.0813 11.2698 36.3289 11.5431 35.6113L11.9055 35.7495C11.6486 36.4241 11.5134 37.1315 11.5032 37.8532Z" fill="#4079FF"/>
<path d="M24.2313 14.5005C24.8803 14.8485 25.4781 15.7545 25.7044 16.5017C25.9306 17.25 27.3699 23.0758 27.2123 23.5937C27.0546 24.1127 23.8874 25.7107 23.2926 24.5345C22.6979 23.3583 22.8944 16.1711 22.8944 16.1711L24.2313 14.5005Z" fill="#3A3A4D"/>
<path d="M8.46335 18.5071C8.58824 20.7469 10.696 28.1265 10.696 28.1265C10.696 28.1265 11.0471 33.2408 11.301 35.0905C11.3624 35.3137 11.7575 35.543 12.3636 35.7539C14.3679 36.453 18.6704 36.9628 20.7689 36.4274C23.5011 35.7324 24.8697 34.1539 24.9178 33.382C24.9669 32.6102 24.4234 29.0519 24.2156 27.8409C24.0098 26.632 24.1122 23.2047 24.5186 21.3652C24.925 19.5267 24.6619 15.1136 24.2289 14.4994C23.7959 13.8852 20.5345 12.836 20.0411 12.6271L16.7684 12.0713C16.7684 12.0713 15.02 12.5985 14.7548 12.7766C14.4907 12.9537 10.9642 14.179 10.0009 14.8679C9.09292 15.518 8.4224 16.1854 8.45004 18.1314C8.45107 18.2522 8.45516 18.3761 8.46335 18.5071Z" fill="#46465C"/>
<path d="M8.46453 18.5066C8.58941 20.7464 10.6971 28.126 10.6971 28.126C10.6971 28.126 11.0483 33.2403 11.3021 35.09C11.3636 35.3132 11.7587 35.5425 12.3647 35.7534C12.2245 34.309 11.9092 32.8728 11.7137 31.4304C11.5837 30.4692 11.6887 29.6919 11.6631 28.7205C11.6395 27.8114 12.1749 25.1376 12.1749 25.1376L11.1513 23.0903C10.1276 22.0669 10.7965 20.3041 10.7965 20.3041C10.7965 20.3041 9.60492 18.8454 8.83409 18.3234C8.7174 18.2435 8.5884 18.1698 8.45328 18.1299C8.45226 18.2517 8.45634 18.3756 8.46453 18.5066Z" fill="#282837"/>
<path d="M22.1515 12.2165C21.6049 12.9494 20.6816 15.5977 20.6816 15.5977C20.6816 15.5977 19.9988 16.8783 19.1839 16.9029C18.3691 16.9274 18.2094 17.0533 17.3925 16.4883C16.5746 15.9232 15.1916 13.3906 15.1875 13.1777C15.1834 12.9648 15.816 11.7753 16.1487 11.2266C16.4814 10.6779 17.1294 8.24056 17.1294 8.24056L18.6178 7.36328L21.7185 8.43915L22.1515 12.2165Z" fill="#C26C4E"/>
<path d="M22.6374 5.47275C22.9598 5.49117 24.3746 6.57625 24.6602 7.24061C24.9458 7.90497 24.6898 9.57048 24.6898 9.57048C24.7698 9.59228 22.6286 14.128 22.2085 14.3213C21.8512 14.5301 20.9422 14.5373 20.9422 14.5373L19.7097 14.0849C19.7097 14.0849 18.4178 11.9945 18.0391 10.9289C17.6603 9.86325 17.732 8.13017 17.732 8.13017L19.5572 5.58124L20.676 4.50537L22.6374 5.47275Z" fill="#C26C4E"/>
<path d="M23.05 6.31115C23.05 6.31115 21.7939 6.01017 21.6271 6.03883C21.4602 6.06749 20.5379 7.43001 20.5379 7.43001L19.3576 8.14762L18.6185 9.42923L18.2029 9.35245L18.1148 8.2121L17.3205 7.88042L16.7953 9.42002L16.2958 10.9166L15.8986 10.632C15.8986 10.632 15.6939 8.08618 15.7471 7.70845C15.8003 7.33071 15.8495 5.60175 16.8015 4.70092C17.7535 3.80112 18.6615 3.71921 18.6615 3.71921C18.6615 3.71921 20.0209 3.11833 21.3967 3.39881C22.7725 3.68032 24.6019 5.60991 24.8506 6.05623C25.0994 6.50255 25.3798 6.99495 25.3225 7.66852C25.3016 8.3453 25.2342 9.55737 24.6113 9.79777C24.817 8.49464 24.5599 7.38089 24.392 7.11473C24.2241 6.84858 23.7205 6.49234 23.7205 6.49234L23.05 6.31115Z" fill="#202020"/>
<path d="M10.8871 23.4696C10.8779 23.7972 12.1196 25.1269 12.9508 25.7708C13.78 26.4147 16.0801 28.7415 17.5102 28.6494C18.9382 28.5552 18.2759 27.6124 18.2759 27.6124L17.156 24.2855L17.0147 23.8637C17.0147 23.8637 15.9133 22.7981 15.0831 21.9843C14.7504 21.6577 14.4607 21.3721 14.302 21.2124C13.7472 20.6525 10.625 20.7937 10.625 20.7937C10.625 20.7937 10.8932 23.14 10.8871 23.4696Z" fill="#B26143"/>
<path d="M15.7894 23.3602L15.7177 24.4524L16.9922 25.0707C16.9922 25.0707 17.0741 24.781 17.155 24.2856L17.0137 23.8638C17.0137 23.8638 15.9122 22.7982 15.082 21.9844L15.7894 23.3602Z" fill="#7D4330"/>
<path d="M10.0026 14.8691C9.35464 15.0575 7.57959 16.5285 8.09143 18.064C8.60224 19.5995 11.4132 24.9359 11.4132 24.9359L12.443 25.3423C12.443 25.3423 12.1308 24.4363 12.6089 23.8795C13.0869 23.3226 14.4218 22.9797 14.7719 22.9193C15.122 22.8589 16.1303 23.0073 16.1303 23.0073L16.3729 23.2427L16.2818 22.7094C16.2818 22.7094 14.2519 19.5002 14.0799 19.0713C13.9079 18.6424 12.8412 16.4313 12.14 15.683C11.4398 14.9346 10.8297 14.6286 10.0026 14.8691Z" fill="#3A3A4D"/>
<path d="M19.7122 9.64722C19.7163 9.94613 20.2732 12.3538 20.2732 12.3538L20.4053 12.5401C20.4053 12.5401 20.048 10.5982 19.9139 10.1785C19.7819 9.75776 19.9139 9.64925 20.1504 9.62776V9.6257C19.9794 9.57349 19.831 9.69635 19.8126 9.72195L19.7051 9.32373C19.7112 9.44043 19.7112 9.55509 19.7122 9.64722Z" fill="#7D4330"/>
<path d="M18.8735 9.2019C18.8735 9.2019 18.72 9.17528 18.5664 9.16504C18.6616 9.24386 18.7507 9.34315 18.7834 9.45063C18.8643 9.72395 19.3475 12.5083 19.3475 12.5083C19.3475 12.5083 19.4805 12.5994 19.4242 12.4868C19.3679 12.3742 18.9636 9.86216 18.8868 9.34623C18.8786 9.29402 18.8745 9.24592 18.8735 9.2019Z" fill="#7D4330"/>
<path d="M18.0547 10.2265L18.1069 10.4016L18.2656 12.9065C18.2656 12.9065 18.3474 12.8072 18.3802 12.7765C18.4119 12.7468 18.2748 10.2992 18.2748 10.2992C18.2748 10.2992 18.2656 10.2378 18.2482 10.1426C18.2502 10.1968 18.2512 10.2296 18.2512 10.2296C18.2512 10.2296 18.1601 10.2255 18.0547 10.2265Z" fill="#7D4330"/>
<path d="M19.4646 16.732C19.6274 16.4832 20.4893 15.9581 20.7217 16.648C20.953 17.338 20.907 18.5009 20.7544 19.1909C20.6019 19.8808 18.3447 27.1499 17.6507 27.588C16.9566 28.0261 16.0404 27.2123 16.0404 27.2123L15.9043 24.5436L18.2209 20.5595L19.4646 16.732Z" fill="#C26C4E"/>
<path d="M14.242 23.3284C15.0088 23.2312 15.3957 23.8382 15.3957 23.8382C15.3957 23.8382 16.6691 25.3225 16.9148 26.4107C17.1605 27.4999 16.9906 27.6985 16.9906 27.6985C16.9906 27.6985 15.2483 26.8806 14.8 26.595C14.3516 26.3094 13.0566 24.4903 13.0566 24.4903C13.0566 24.4903 13.118 23.4717 14.242 23.3284Z" fill="#C26C4E"/>
<path d="M19.4078 9.90921C19.2237 9.66626 18.2588 8.04832 17.6062 7.51224C16.9536 6.97617 16.8437 7.71259 16.8437 7.71259C16.8437 7.71259 17.0391 7.44116 17.4608 7.7678C17.8825 8.09444 19.2522 10.3166 19.2522 10.3166L19.4087 9.90958L19.4078 9.90921Z" fill="#EEEEEE"/>
<path d="M22.9691 10.7247C23.4599 10.8794 23.8218 11.5 23.8218 11.5C23.8218 11.5 23.3069 12.8032 22.8277 13.5621C22.3485 14.321 21.7647 14.7546 21.6175 14.8011C21.4703 14.8476 20.205 14.5344 19.7336 14.3532C19.2622 14.1719 17.4055 12.4589 17.2823 12.1374C17.1595 11.8149 18.3009 9.42449 18.5531 9.20119C18.8052 8.97789 18.8882 9.42106 20.3757 10.1553C21.7737 10.8474 21.9051 10.3891 22.9691 10.7247Z" fill="#EEEEEE"/>
<path d="M16.68 9.85413C16.68 9.85413 16.7258 10.4327 17.0169 10.8309C17.3083 11.2281 18.2145 12.2257 18.2145 12.2257C18.2145 12.2257 18.4275 11.8744 18.3798 11.7958C18.3322 11.7171 17.984 11.4703 17.4187 10.8384C16.8537 10.2055 16.7848 9.27042 16.7848 9.27042C16.7848 9.27042 16.6313 9.57001 16.68 9.85413Z" fill="#EEEEEE"/>
<path d="M16.6589 28.3734C17.3387 28.8228 18.3183 28.6549 18.5517 28.442C18.7851 28.2311 20.4895 24.1784 20.9287 22.2119C21.3658 20.2434 21.9134 16.9052 21.9134 16.9052C21.9134 16.9052 21.9503 16.5551 22.0291 16.2204C22.1079 15.8887 22.1008 15.1281 22.0312 14.647C21.9616 14.1679 21.3934 13.221 21.3934 13.221C21.3934 13.221 21.0566 12.3919 21.0054 12.2424C20.9563 12.0909 20.727 10.752 20.4854 10.0579C20.3892 9.77743 20.2674 9.66173 20.1517 9.62693C19.9808 9.57472 19.8323 9.69755 19.8139 9.72314L19.7064 9.32496L19.6849 9.24817C19.6849 9.24817 19.4075 9.07519 19.2969 9.06904C19.1864 9.0629 18.8762 9.20313 18.8762 9.20313C18.8762 9.20313 18.7227 9.17653 18.5691 9.16629C18.4268 9.15503 18.2856 9.1581 18.2641 9.20928C18.2283 9.29424 18.2436 9.90843 18.2518 10.1429C18.2518 10.1429 18.2518 10.1429 18.2518 10.1449C18.2538 10.1992 18.2549 10.2319 18.2549 10.2319C18.2549 10.2319 18.1638 10.2268 18.0593 10.2289C17.9488 10.2319 17.8249 10.2421 17.783 10.2749C17.7031 10.3373 17.5147 12.7307 17.5147 12.7307C17.5147 12.7307 17.441 13.0992 17.6499 13.6653C17.8587 14.2324 19.0308 15.7771 19.0308 15.7771C19.0308 15.7771 19.3574 16.3852 19.2509 16.6995C19.1444 17.0117 18.0102 20.5116 17.5833 21.4698C17.1565 22.4279 15.9383 23.8518 15.7213 24.4548C15.5032 25.0547 15.9813 27.923 16.6589 28.3734Z" fill="#B26143"/>
<path d="M17.5827 10.0319C17.4414 10.2315 17.0473 10.1558 16.8487 9.66545C16.6501 9.17512 16.3103 7.9539 16.6338 7.54648C16.9572 7.13906 17.4476 7.41646 17.6318 7.82696C17.8161 8.23847 17.8857 9.60301 17.5827 10.0319Z" fill="#CF7961"/>
</g>
<defs>
<clipPath id="clip0_803_6972">
<rect width="37.5" height="37.5" fill="white"/>
</clipPath>
</defs>
</svg>
